<?xml version="1.0" standalone="no"?>
<!DOCTYPE svg PUBLIC "-//W3C//DTD SVG 20010904//EN"
 "http://www.w3.org/TR/2001/REC-SVG-20010904/DTD/svg10.dtd">
<svg version="1.0" xmlns="http://www.w3.org/2000/svg"
 width="1100.000000pt" height="1000.000000pt" viewBox="0 0 1100.000000 1000.000000"
 preserveAspectRatio="xMidYMid meet">

<g transform="translate(0.000000,1000.000000) scale(0.100000,-0.100000)"
fill="#000000" stroke="none">
<path d="M0 5000 l0 -5000 5500 0 5500 0 0 5000 0 5000 -5500 0 -5500 0 0
-5000z m1770 4980 c0 -5 -4 -10 -10 -10 -5 0 -10 5 -10 10 0 6 5 10 10 10 6 0
10 -4 10 -10z m357 -25 c-10 -34 -27 -48 -27 -22 0 28 13 57 25 57 10 0 11 -8
2 -35z m728 25 c-3 -5 -10 -10 -16 -10 -5 0 -9 5 -9 10 0 6 7 10 16 10 8 0 12
-4 9 -10z m92 4 c-3 -3 -12 -4 -19 -1 -8 3 -5 6 6 6 11 1 17 -2 13 -5z m199
-16 c-1 -18 5 -23 25 -24 41 -2 80 -14 74 -23 -3 -5 1 -12 7 -14 7 -3 -6 -6
-29 -6 -35 -1 -43 2 -43 17 0 13 -2 14 -9 4 -12 -20 -113 2 -137 30 -19 20
-19 21 1 14 51 -15 86 -14 96 5 13 25 16 24 15 -3z m105 14 c3 -1 6 -9 6 -18
0 -11 -6 -14 -21 -9 -18 5 -28 8 -54 14 -2 1 -1 5 2 10 4 7 45 8 67 3z m1764
-2 c17 -7 24 -7 20 0 -3 6 4 10 16 10 20 0 20 -1 7 -22 -9 -13 -23 -23 -33
-23 -10 0 -24 10 -32 23 -17 25 -15 26 22 12z m375 -5 c-14 -17 -5 -35 17 -35
10 0 14 -6 10 -20 -4 -15 1 -22 18 -26 24 -6 38 -26 39 -54 1 -8 10 -19 22
-24 12 -5 30 -22 40 -37 21 -32 26 -31 48 16 15 31 21 35 56 35 22 0 40 5 40
11 0 6 10 19 22 29 l22 18 -32 7 c-17 3 -34 10 -37 15 -3 5 -18 5 -34 0 -54
-15 -20 32 48 68 14 7 63 12 127 12 86 0 104 -3 104 -15 0 -8 7 -15 15 -15 8
0 15 7 15 15 0 13 20 15 120 15 66 0 120 -4 120 -8 0 -17 -14 -22 -28 -9 -13
10 -14 9 -10 -3 2 -8 15 -16 27 -16 13 -1 26 -6 30 -12 5 -8 18 -9 46 -1 32 9
40 8 47 -6 8 -13 13 -14 24 -4 17 14 19 -2 2 -21 -11 -12 -10 -12 5 0 10 7 31
14 48 15 28 2 29 1 26 -40 -3 -35 0 -41 18 -42 11 -1 14 1 8 4 -19 7 -16 23 5
24 16 1 16 2 0 6 -19 5 -25 33 -8 33 27 0 60 -26 65 -51 4 -18 14 -29 28 -32
12 -2 -7 -5 -43 -5 -94 -3 -198 -19 -340 -53 -198 -47 -227 -57 -290 -107
-121 -95 -158 -122 -167 -122 -18 0 -95 -88 -88 -101 5 -8 4 -10 -3 -5 -8 4
-12 0 -12 -11 0 -10 -25 -52 -56 -93 -30 -41 -57 -86 -61 -100 -3 -14 -25 -66
-48 -116 -44 -93 -61 -144 -90 -274 -10 -41 -26 -95 -36 -118 -22 -52 -76
-259 -83 -322 -10 -78 -25 -190 -46 -344 -32 -234 -24 -310 21 -216 l17 35 1
-90 c1 -49 6 -121 12 -160 5 -38 16 -117 24 -175 8 -58 24 -148 37 -200 l23
-95 5 65 c6 72 37 163 54 157 6 -2 13 -21 16 -43 3 -23 10 -39 18 -38 6 1 18
2 25 3 14 1 70 168 83 245 6 32 8 36 17 21 13 -23 4 -214 -12 -242 -8 -16 -9
-29 -1 -42 8 -16 5 -23 -13 -38 -40 -31 -46 -53 -37 -128 11 -84 -3 -121 -57
-150 -19 -10 -49 -35 -67 -55 -35 -39 -65 -63 -52 -42 4 7 1 12 -8 12 -9 0
-16 -4 -16 -10 0 -5 -4 -10 -10 -10 -5 0 -7 21 -3 50 6 50 6 50 -23 50 -16 0
-45 5 -65 10 -19 5 -49 11 -65 13 -16 2 -48 9 -72 17 -50 16 -64 6 -56 -40 2
-14 0 -31 -5 -39 -7 -12 -12 -11 -31 2 -12 8 -30 13 -40 10 -12 -3 -28 4 -43
19 -19 19 -32 24 -58 20 -19 -2 -40 -9 -46 -14 -9 -7 -13 -7 -13 1 0 6 4 11 8
11 5 0 10 25 11 55 1 45 -2 57 -16 62 -33 12 -44 42 -15 44 22 1 -59 27 -126
40 -39 8 -57 7 -68 -1 -19 -17 -64 -4 -64 18 -1 16 -1 16 -11 -1 -7 -12 -17
-15 -37 -11 -39 9 -47 20 -28 39 17 17 21 35 9 35 -5 0 -26 -5 -48 -10 -59
-14 -85 -4 -85 32 0 16 -4 27 -10 23 -5 -3 -7 -12 -3 -20 3 -8 0 -15 -6 -15
-6 0 -11 5 -11 11 0 5 -4 7 -10 4 -18 -11 -11 14 10 35 11 11 20 33 20 49 0
17 5 33 12 37 8 5 9 0 6 -14 -4 -12 -2 -22 4 -22 10 0 7 30 -7 63 -6 13 -4 16
9 11 30 -11 16 15 -31 61 -36 34 -53 44 -70 40 -17 -4 -23 -1 -24 12 -1 16 -2
16 -6 1 -2 -9 -10 -15 -17 -12 -10 4 -17 -14 -27 -63 -8 -37 -15 -61 -17 -52
-1 9 2 36 7 60 8 36 7 45 -5 52 -16 9 -15 17 17 177 l20 95 -43 37 c-26 23
-53 38 -69 38 -28 0 -43 21 -34 49 4 12 -2 17 -21 19 -14 1 -23 -2 -19 -8 4
-6 -12 -10 -39 -10 -25 0 -46 -4 -46 -8 0 -4 -17 -8 -37 -7 l-38 0 -6 -50 c-4
-27 -12 -63 -19 -80 -21 -50 -24 -9 -5 67 9 39 13 73 8 77 -22 19 -203 48
-203 33 0 -6 6 -12 13 -15 7 -2 8 -8 3 -13 -5 -5 -11 -3 -14 5 -3 8 -15 24
-28 36 -14 13 -20 26 -15 34 8 12 60 5 131 -19 14 -5 48 -11 75 -14 l50 -6 3
43 c1 23 3 50 5 61 1 14 -8 22 -38 30 -25 7 -41 18 -43 30 -4 17 1 18 45 14
38 -4 50 -1 50 9 0 7 -5 12 -11 10 -14 -5 -46 11 -46 23 0 4 16 7 35 5 26 -2
35 1 35 12 0 10 -6 13 -16 9 -9 -4 -22 -1 -30 5 -7 6 -38 12 -68 13 -31 1 -59
5 -63 9 -3 4 -16 7 -28 7 -11 0 -26 5 -32 11 -7 7 -22 12 -34 13 -12 0 -24 7
-27 14 -3 9 12 11 67 6 l71 -7 0 34 c0 33 -2 35 -52 47 -59 14 -62 16 -55 35
5 12 16 13 69 3 l63 -12 -3 -39 c-2 -21 -7 -47 -12 -56 -11 -20 -1 -25 71 -35
27 -4 56 -13 64 -20 15 -15 17 -12 30 54 5 24 3 32 -7 30 -7 -2 -13 4 -13 12
0 9 7 14 18 12 10 -2 17 4 18 15 5 68 5 68 -26 71 -16 2 -40 13 -55 24 l-25
21 50 -8 c28 -4 55 -8 60 -8 6 -1 11 15 13 36 2 20 1 37 -3 37 -3 0 -38 8 -78
19 -39 10 -98 24 -130 31 -35 8 -62 20 -68 31 -13 25 -11 33 4 21 11 -9 52
-18 232 -48 17 -3 36 -7 43 -9 17 -6 15 22 -3 29 -22 8 -18 26 5 26 30 0 24
17 -11 29 -35 12 -30 36 5 27 15 -4 23 -1 23 8 0 9 -17 17 -44 21 -28 4 -43
11 -40 18 2 7 12 11 21 11 9 -1 16 3 16 9 0 7 4 7 12 -1 7 -7 21 -12 32 -12
21 1 21 1 1 12 -11 7 -39 17 -63 23 -63 16 -51 31 23 27 64 -4 65 -3 65 21 0
40 -10 57 -35 57 -15 0 -25 7 -28 21 -5 17 -11 20 -30 15 -14 -3 -32 0 -43 9
-10 8 -27 15 -36 15 -12 0 -18 8 -19 23 0 22 0 22 -9 1 -10 -25 -46 -44 -36
-19 4 10 0 14 -14 12 -26 -4 -38 -17 -16 -17 26 0 15 -34 -12 -38 -23 -4 -52
13 -52 30 0 5 10 13 23 18 21 8 21 9 2 9 -21 1 -45 18 -45 32 0 13 62 29 74
20 7 -6 17 -6 26 -1 12 8 10 10 -8 10 -13 0 -20 4 -17 10 3 6 15 10 25 10 15
0 18 6 15 29 -2 16 0 46 5 68 17 84 19 103 10 103 -6 0 -10 -16 -10 -36 0 -19
-5 -44 -11 -55 -6 -11 -12 -30 -14 -41 -6 -27 -11 -32 -27 -22 -7 5 -21 7 -30
6 -11 -2 -18 3 -18 13 0 11 8 16 23 15 39 -4 47 0 47 20 0 20 -25 28 -32 10
-1 -5 -14 -7 -26 -3 -20 5 -23 10 -18 34 4 21 2 29 -9 29 -19 0 -28 -17 -13
-23 9 -3 10 -8 3 -14 -6 -6 -33 -8 -67 -4 -51 6 -58 5 -58 -10 0 -9 -7 -19
-15 -23 -8 -3 -15 -12 -15 -21 0 -8 -4 -15 -10 -15 -5 0 -10 8 -10 18 0 10 -3
21 -6 25 -11 11 -34 -21 -28 -37 5 -14 -3 -16 -57 -15 -118 2 -140 15 -125 73
4 16 18 26 46 35 22 6 40 16 40 21 0 11 73 50 92 49 10 0 10 -2 1 -6 -19 -7
-16 -20 8 -44 17 -17 23 -19 30 -8 5 8 9 18 9 22 0 5 7 16 16 24 10 10 13 25
10 42 -6 25 -6 25 9 7 18 -23 19 -32 5 -41 -5 -3 -10 -16 -10 -28 0 -18 6 -22
35 -23 39 -1 48 13 13 18 -13 2 -23 10 -23 18 0 11 10 14 40 13 51 -3 75 5 56
16 -7 5 -10 14 -7 20 12 20 26 12 26 -15 0 -17 6 -28 20 -31 15 -4 18 -11 14
-33 -4 -19 -1 -29 10 -33 18 -7 21 4 5 20 -7 7 -6 15 5 26 22 21 21 24 -14 31
-16 3 -30 12 -30 20 0 26 35 29 128 10 30 -6 28 12 -3 20 -26 7 -32 20 -14 32
6 3 15 1 19 -6 13 -20 32 0 26 26 -7 28 16 43 38 25 7 -6 16 -8 19 -4 4 3 7
-5 7 -20 0 -27 15 -44 24 -28 4 5 1 11 -6 13 -6 2 -9 12 -5 21 6 16 9 17 37 2
30 -16 33 -35 4 -35 -8 0 -14 -5 -14 -11 0 -6 9 -9 20 -6 12 3 20 0 20 -8 0
-8 8 -11 20 -8 20 5 29 33 10 33 -5 0 -10 5 -10 10 0 6 7 10 15 10 8 0 19 17
25 43 6 23 13 49 16 57 12 32 34 169 39 235 8 100 15 138 30 155 7 8 20 38 28
65 l15 50 -5 -69 c-6 -63 -5 -69 11 -63 10 4 24 7 32 7 8 0 22 16 30 35 8 19
21 35 29 35 8 0 15 7 15 15 0 18 21 20 38 3 16 -16 15 -31 0 -23 -7 4 2 -5 20
-20 17 -14 32 -34 32 -43 0 -9 12 -39 25 -67 25 -50 25 -50 5 -77 -17 -23 -17
-27 -4 -32 22 -9 54 12 54 34 0 26 21 26 43 0 9 -11 27 -20 39 -20 42 0 82
-33 84 -68 1 -30 -1 -32 -33 -32 -20 0 -32 -4 -28 -10 3 -6 -1 -7 -9 -4 -9 3
-16 13 -16 20 0 13 -40 36 -49 28 -1 -1 3 -12 11 -23 8 -12 17 -19 19 -16 3 2
10 -5 17 -15 14 -23 4 -26 -23 -6 -17 12 -21 12 -33 -5 -25 -36 -81 -19 -74
22 2 13 -10 20 -48 29 -33 8 -48 16 -43 23 10 16 4 59 -10 76 -7 8 -11 17 -10
20 0 3 -3 5 -8 4 -5 -2 -9 2 -9 9 0 9 -3 9 -12 0 -18 -18 -24 -15 -38 18 -7
17 -13 30 -15 30 -1 0 -16 -7 -33 -16 -25 -12 -35 -26 -48 -70 -8 -29 -12 -63
-9 -74 4 -12 1 -27 -5 -35 -6 -7 -18 -58 -26 -112 -7 -54 -16 -108 -19 -120
-5 -23 -6 -22 66 -23 15 0 32 -7 39 -15 7 -8 16 -13 20 -10 15 9 22 -15 9 -31
-6 -8 -9 -17 -5 -21 10 -11 19 5 20 37 1 16 6 30 12 30 8 0 10 11 5 33 -4 17
-2 49 3 69 10 34 12 36 31 22 11 -9 26 -19 34 -24 12 -6 10 -14 -12 -40 -31
-37 -27 -48 27 -74 23 -11 51 -14 92 -11 56 4 124 -10 124 -27 0 -4 10 -16 21
-27 12 -11 19 -26 16 -35 -3 -9 -2 -18 4 -22 7 -4 6 -10 -1 -19 -19 -23 10
-29 38 -8 22 16 27 28 27 63 0 34 4 44 21 50 11 5 27 4 34 0 12 -7 11 -13 -4
-29 -11 -12 -25 -21 -33 -21 -10 0 -12 -7 -8 -22 10 -33 18 -39 61 -44 21 -3
41 -8 44 -13 3 -4 40 -7 83 -7 44 1 81 -2 84 -6 10 -18 20 -6 15 18 -5 25 -3
26 29 19 19 -4 48 -7 66 -7 33 1 59 -20 48 -38 -5 -8 -10 -8 -20 0 -7 6 -16 7
-19 2 -3 -5 9 -19 26 -32 24 -17 32 -20 38 -9 5 7 4 22 -2 32 -9 18 -8 19 18
12 16 -4 41 -7 56 -7 15 -1 29 -7 32 -14 3 -8 12 -14 19 -14 8 0 22 -9 32 -20
10 -11 22 -17 26 -14 5 3 5 -5 0 -18 -11 -29 -41 -36 -47 -11 -5 19 -44 26
-59 11 -4 -4 -12 -5 -19 -2 -8 3 -12 -7 -12 -31 0 -34 1 -35 28 -30 27 6 33
-1 30 -36 0 -3 8 -10 18 -17 16 -10 18 -9 13 4 -5 14 2 15 61 9 46 -5 66 -4
66 4 0 6 -3 10 -7 10 -36 -6 -66 12 -57 34 3 9 11 14 16 11 6 -4 5 4 -2 16
-15 28 -20 70 -9 70 5 0 12 15 17 32 6 23 19 38 44 52 20 10 41 29 47 43 14
30 14 40 0 26 -12 -12 -59 -5 -59 9 0 5 -6 8 -12 7 -7 -2 -32 1 -56 5 -24 4
-65 9 -93 11 -55 2 -62 6 -54 27 7 16 55 13 55 -4 0 -5 3 -7 8 -5 4 2 36 0 72
-4 85 -12 130 -15 130 -10 0 2 -7 13 -17 23 -9 11 -11 18 -5 18 7 0 12 -6 13
-12 0 -10 2 -10 6 0 2 6 16 12 29 12 17 0 24 6 24 20 0 13 10 24 27 31 22 8
24 12 13 19 -14 9 -7 14 13 11 21 -4 127 33 127 44 0 7 -17 19 -37 28 l-38 15
46 1 c25 1 49 -3 55 -8 5 -5 19 -5 31 -1 19 8 21 12 10 39 -6 16 -15 28 -19
25 -4 -3 -8 -2 -8 3 0 4 -11 13 -25 20 -14 6 -25 7 -25 2 0 -13 -37 -11 -45 2
-9 14 0 21 27 22 18 0 23 5 24 28 1 20 -5 30 -17 34 -30 10 -22 25 14 26 l32
0 -37 17 c-33 15 -35 19 -23 35 10 14 14 15 18 5 3 -7 6 1 6 18 1 33 -12 44
-50 44 -15 0 -18 5 -13 24 7 31 -11 42 -43 25 -23 -12 -27 -11 -47 14 -13 16
-32 27 -46 27 -14 0 -34 7 -44 15 -11 8 -30 15 -42 15 -13 0 -26 5 -29 11 -4
5 -18 14 -31 19 -13 5 -24 16 -24 25 0 13 23 15 156 15 136 0 155 -2 144 -15z
m3358 -2 c2 -8 -5 -13 -17 -13 -12 0 -21 6 -21 16 0 18 31 15 38 -3z m-1911
-9 c-3 -3 -12 -4 -19 -1 -8 3 -5 6 6 6 11 1 17 -2 13 -5z m2108 -4 c3 -5 1
-10 -4 -10 -6 0 -11 5 -11 10 0 6 2 10 4 10 3 0 8 -4 11 -10z m-6165 -10 c0
-5 -4 -10 -10 -10 -5 0 -10 5 -10 10 0 6 5 10 10 10 6 0 10 -4 10 -10z m230 0
c18 -12 2 -12 -25 0 -13 6 -15 9 -5 9 8 0 22 -4 30 -9z m3664 -20 c109 -24
123 -34 36 -26 -80 8 -150 26 -150 37 0 13 13 11 114 -11z m-3359 -41 c-9 -14
-34 2 -28 17 4 11 9 12 19 3 8 -6 11 -15 9 -20z m212 9 c-3 -8 -6 -5 -6 6 -1
11 2 17 5 13 3 -3 4 -12 1 -19z m-2443 -35 c-10 -41 -27 -65 -19 -28 3 17 6
36 7 43 1 6 5 12 10 12 5 0 5 -12 2 -27z m5806 17 c0 -5 -2 -10 -4 -10 -3 0
-8 5 -11 10 -3 6 -1 10 4 10 6 0 11 -4 11 -10z m-3570 -33 c0 -4 9 -3 20 3 16
8 21 6 31 -12 8 -14 14 -18 17 -10 2 6 8 12 13 12 14 0 11 -28 -3 -33 -10 -3
-10 -7 0 -20 16 -19 6 -41 -14 -33 -7 3 -16 1 -19 -4 -4 -6 1 -10 9 -10 16 0
46 -26 46 -41 0 -5 -8 -9 -17 -9 -13 0 -14 -3 -5 -12 7 -7 12 -20 12 -30 0
-10 7 -18 15 -18 8 0 15 -4 15 -10 0 -5 -8 -10 -19 -10 -10 0 -21 -9 -24 -20
-6 -24 2 -60 14 -60 5 0 9 -7 9 -15 0 -8 -6 -15 -14 -15 -17 0 -27 -49 -15
-73 6 -10 28 -25 50 -33 47 -19 51 -34 8 -34 -22 0 -32 5 -36 20 -3 11 -12 20
-19 20 -8 0 -14 7 -14 15 0 9 -7 18 -15 21 -10 4 -12 15 -8 35 4 21 2 29 -9
29 -8 0 -14 9 -14 21 1 13 -6 23 -16 24 -14 3 -17 -4 -15 -36 1 -22 4 -33 9
-26 4 7 8 8 8 2 0 -5 3 -21 6 -35 4 -18 3 -21 -4 -11 -6 8 -15 10 -23 5 -15
-9 -100 -6 -111 4 -4 4 1 41 11 82 10 41 16 78 14 83 -2 4 -16 7 -31 6 -15 0
-47 5 -72 11 -73 19 -82 21 -143 26 -33 2 -71 11 -87 19 -15 8 -30 12 -32 9
-3 -2 -11 2 -17 10 -18 21 -5 39 18 26 10 -5 20 -7 23 -5 3 3 25 1 49 -4 290
-61 309 -62 309 -24 0 9 15 13 43 14 42 1 42 1 12 11 -38 13 -39 14 -30 28 6
9 10 9 16 -1 6 -11 9 -9 15 5 4 10 2 21 -5 25 -17 11 -2 41 20 41 10 0 19 5
19 10 0 6 -11 10 -25 10 -15 0 -25 6 -25 15 0 10 9 14 25 13 14 -1 25 -6 25
-11z m565 3 c3 -5 1 -10 -4 -10 -6 0 -11 5 -11 10 0 6 2 10 4 10 3 0 8 -4 11
-10z m-825 -10 c0 -5 -4 -10 -10 -10 -5 0 -10 5 -10 10 0 6 5 10 10 10 6 0 10
-4 10 -10z m-117 -24 c15 -6 27 -17 27 -25 0 -12 -3 -12 -12 -3 -7 7 -16 8
-22 3 -14 -12 -96 9 -96 24 0 7 3 14 6 18 8 8 60 -1 97 -17z m-1322 -21 c-1
-15 -24 -12 -29 3 -3 9 2 13 12 10 10 -1 17 -7 17 -13z m5369 -11 c0 -14 -12
-19 -23 -8 -9 9 4 35 14 28 5 -3 9 -12 9 -20z m-4571 -106 c-1 -58 -5 -78 -15
-78 -22 0 -16 -16 11 -28 30 -14 33 -32 5 -32 -23 0 -26 -16 -6 -36 18 -18 35
-18 42 0 4 11 11 11 33 3 16 -6 37 -7 47 -2 12 5 15 9 7 12 -24 9 -13 22 14
17 36 -7 45 -14 39 -30 -3 -8 1 -14 9 -14 8 0 15 -4 15 -10 0 -5 7 -7 15 -4
13 5 13 8 -1 21 -12 12 -12 18 -2 30 8 10 14 11 16 4 5 -14 57 13 66 34 3 9
10 14 16 10 5 -3 16 8 25 25 8 16 18 30 20 30 10 0 -3 -94 -14 -98 -6 -2 -11
-16 -11 -30 1 -25 2 -26 14 -9 16 21 35 24 91 13 22 -4 37 -4 33 0 -4 4 -3 13
3 21 9 10 8 13 -5 13 -20 0 -21 14 -1 30 13 11 18 10 29 -6 10 -13 11 -23 4
-31 -18 -22 -1 -40 44 -47 94 -14 298 -66 298 -75 0 -12 -85 -30 -111 -25 -17
4 -20 3 -10 -4 25 -18 -77 -35 -133 -22 -50 11 -91 40 -68 48 23 7 12 19 -25
25 -21 4 -42 2 -50 -5 -10 -8 -13 -6 -13 6 0 11 -9 16 -26 16 -19 0 -25 -4
-20 -15 8 -22 -11 -18 -27 6 l-15 21 -8 -24 c-4 -12 -8 -30 -8 -38 -1 -8 -12
-17 -25 -18 -21 -3 -23 -1 -17 21 3 14 9 32 12 41 5 12 2 15 -10 10 -17 -6
-20 -16 -16 -48 1 -14 -3 -17 -17 -13 -42 13 -211 60 -243 68 -19 4 -36 13
-38 18 -2 6 -15 11 -29 11 -24 0 -25 2 -17 38 4 20 7 61 6 91 -1 33 4 58 12
66 7 8 16 33 20 56 15 96 38 57 35 -63z m344 109 c4 -10 -3 -12 -27 -9 -27 4
-28 6 -11 13 29 11 32 11 38 -4z m356 -2 c46 -8 86 -17 89 -20 10 -9 11 -35 1
-30 -4 3 -23 8 -41 10 -55 7 -93 17 -100 29 -6 8 -11 7 -17 -3 -7 -11 -11 -9
-20 8 -14 25 -18 25 88 6z m481 -15 c0 -5 -4 -10 -10 -10 -5 0 -10 5 -10 10 0
6 5 10 10 10 6 0 10 -4 10 -10z m40 -10 c0 -5 -4 -10 -9 -10 -6 0 -13 5 -16
10 -3 6 1 10 9 10 9 0 16 -4 16 -10z m1790 0 c0 -5 -4 -10 -10 -10 -5 0 -10 5
-10 10 0 6 5 10 10 10 6 0 10 -4 10 -10z m-1582 -22 c45 -14 40 -28 -10 -28
-65 0 -87 9 -81 31 6 20 18 19 91 -3z m-1218 3 c0 -6 -4 -13 -10 -16 -5 -3
-10 1 -10 9 0 9 5 16 10 16 6 0 10 -4 10 -9z m-173 -33 c-3 -8 -6 -5 -6 6 -1
11 2 17 5 13 3 -3 4 -12 1 -19z m4553 7 c0 -7 7 -15 15 -19 15 -5 21 -26 8
-26 -5 0 -23 13 -42 29 l-35 29 27 0 c15 0 27 -6 27 -13z m1850 5 c0 -5 -4
-10 -10 -10 -5 0 -10 5 -10 10 0 6 5 10 10 10 6 0 10 -4 10 -10z m-5386 -26
c9 -3 16 -14 16 -23 0 -14 -7 -17 -30 -13 -30 4 -41 26 -17 35 6 3 13 6 14 6
1 1 8 -2 17 -5z m280 -9 c-7 -16 -54 -21 -54 -6 0 5 12 12 28 14 15 2 28 5 29
6 1 0 0 -6 -3 -14z m-182 -17 c7 -7 33 -14 58 -15 25 -1 51 -2 58 -2 6 -1 12
-8 12 -16 0 -18 -5 -18 -103 -1 -84 15 -93 19 -82 35 9 15 41 14 57 -1z m-655
-44 c-9 -9 -28 6 -21 18 4 6 10 6 17 -1 6 -6 8 -13 4 -17z m1810 -21 c18 -20
35 -45 39 -55 3 -10 14 -18 24 -18 28 0 32 -37 7 -61 l-22 -20 -11 28 c-7 15
-10 32 -7 39 7 18 -43 44 -87 44 -43 0 -68 10 -110 43 -24 19 -24 19 -2 13 12
-3 32 -8 45 -11 20 -5 20 -5 -3 9 -19 11 -21 16 -10 19 8 3 22 8 30 11 32 11
76 -5 107 -41z m-987 27 c0 -5 -5 -10 -11 -10 -5 0 -7 5 -4 10 3 6 8 10 11 10
2 0 4 -4 4 -10z m-210 -19 c0 -14 -7 -18 -27 -16 -40 3 -43 4 -43 15 0 5 13 7
30 4 19 -4 30 -2 30 5 0 6 2 11 5 11 3 0 5 -8 5 -19z m-780 -1 c0 -5 -4 -10
-10 -10 -5 0 -10 5 -10 10 0 6 5 10 10 10 6 0 10 -4 10 -10z m6120 -11 c0 -11
-27 -12 -34 0 -3 4 -3 11 0 14 8 8 34 -3 34 -14z m-5310 -5 c0 -8 -5 -12 -10
-9 -6 4 -8 11 -5 16 9 14 15 11 15 -7z m585 6 c3 -5 1 -10 -4 -10 -6 0 -11 5
-11 10 0 6 2 10 4 10 3 0 8 -4 11 -10z m388 -17 c-8 -24 -24 -43 -34 -43 -12
0 2 33 20 47 21 16 21 16 14 -4z m-1933 -13 c0 -5 -4 -10 -10 -10 -5 0 -10 5
-10 10 0 6 5 10 10 10 6 0 10 -4 10 -10z m907 -47 c-3 -10 -5 -4 -5 12 0 17 2
24 5 18 2 -7 2 -21 0 -30z m691 16 c10 -15 11 -24 3 -32 -13 -13 -16 -10 -25
26 -8 32 4 35 22 6z m-558 -15 c0 -16 -16 -19 -25 -4 -8 13 4 32 16 25 5 -4 9
-13 9 -21z m1010 17 c0 -14 -18 -23 -30 -16 -6 4 -8 11 -5 16 8 12 35 12 35 0z
m4118 -10 c3 -8 -1 -12 -9 -9 -7 2 -15 10 -17 17 -3 8 1 12 9 9 7 -2 15 -10
17 -17z m372 4 c0 -8 -4 -15 -10 -15 -5 0 -10 7 -10 15 0 8 5 15 10 15 6 0 10
-7 10 -15z m-526 -11 c9 -24 7 -28 -9 -14 -17 14 -20 30 -6 30 5 0 12 -7 15
-16z m486 -14 c0 -5 -4 -10 -10 -10 -5 0 -10 5 -10 10 0 6 5 10 10 10 6 0 10
-4 10 -10z m-5640 -15 c0 -8 -4 -15 -10 -15 -5 0 -10 7 -10 15 0 8 5 15 10 15
6 0 10 -7 10 -15z m1070 -5 c0 -13 7 -20 20 -20 11 0 20 -5 20 -11 0 -7 8 -18
18 -25 18 -14 21 -14 -75 -18 -36 -1 -37 -3 -27 -42 5 -19 9 -22 15 -12 10 16
12 6 3 -17 -5 -13 -9 -14 -15 -4 -4 8 -21 14 -36 15 -38 1 -65 14 -60 28 3 8
-6 10 -30 8 -32 -4 -34 -2 -31 19 2 18 10 25 31 27 16 2 35 -2 43 -9 11 -9 18
-9 32 3 9 9 23 13 30 11 7 -3 12 5 12 21 0 14 8 30 18 35 25 15 32 13 32 -9z
m-1028 -5 c0 -5 -5 -11 -11 -13 -6 -2 -11 4 -11 13 0 9 5 15 11 13 6 -2 11 -8
11 -13z m769 2 c-1 -12 -15 -9 -19 4 -3 6 1 10 8 8 6 -3 11 -8 11 -12z m579
-1 c0 -16 -18 -31 -27 -22 -8 8 5 36 17 36 5 0 10 -6 10 -14z m-1760 -6 c0 -5
-2 -10 -4 -10 -3 0 -8 5 -11 10 -3 6 -1 10 4 10 6 0 11 -4 11 -10z m450 -6 c0
-8 -4 -12 -10 -9 -5 3 -10 10 -10 16 0 5 5 9 10 9 6 0 10 -7 10 -16z m3791
-62 c25 -42 56 -102 68 -132 62 -151 94 -201 133 -207 30 -5 36 -13 9 -13 -12
0 -24 -7 -28 -16 -7 -20 17 -95 29 -88 5 3 4 12 -3 20 -9 11 -7 14 10 14 12 0
24 7 27 15 6 15 23 15 58 0 19 -8 19 -9 0 -16 -17 -6 -15 -8 9 -14 25 -7 28
-11 23 -36 -3 -16 -2 -28 2 -28 23 4 52 -3 64 -14 7 -8 23 -19 35 -25 18 -10
23 -8 36 12 9 13 13 33 10 45 -4 15 -1 21 11 21 9 0 16 -5 16 -11 0 -8 5 -7
15 1 20 17 25 11 14 -17 -5 -15 -14 -21 -24 -17 -8 3 -15 1 -15 -5 0 -17 38
-32 65 -25 14 3 25 2 25 -3 0 -5 10 -10 22 -10 13 -1 24 -7 27 -14 2 -6 12
-19 22 -28 51 -46 66 -52 66 -26 0 8 -5 15 -10 15 -5 0 -7 6 -4 14 3 7 1 18
-4 23 -7 7 0 10 20 9 17 -1 33 -7 36 -13 6 -18 35 -16 35 2 0 19 26 20 33 1 3
-7 15 -16 26 -19 18 -4 19 -2 10 15 -10 18 -8 20 18 15 15 -3 45 -8 66 -12 34
-5 37 -8 37 -40 0 -19 5 -37 11 -41 8 -5 6 -10 -5 -16 -29 -16 -17 -33 25 -36
37 -2 40 -1 34 18 -5 14 -2 20 9 20 10 0 16 -10 17 -27 1 -21 3 -23 6 -8 11
49 14 51 33 27 11 -13 24 -21 30 -17 5 3 10 2 10 -3 0 -5 14 -8 30 -7 38 2 62
-22 37 -36 -21 -12 -21 -28 -2 -65 l14 -28 14 32 c7 18 16 29 20 25 4 -3 7 2
7 13 0 14 2 16 9 6 5 -9 24 -13 54 -11 27 2 52 -2 61 -10 19 -16 35 -6 18 11
-8 8 -6 17 6 36 16 24 15 24 -6 18 -30 -10 -28 -2 14 39 33 33 40 36 74 30 38
-6 64 8 35 19 -8 3 -15 10 -15 17 0 6 6 9 14 6 7 -3 19 0 25 6 8 8 17 5 35
-12 21 -20 24 -20 30 -5 4 11 13 14 30 10 30 -7 56 2 56 20 0 8 5 14 10 14 6
0 10 -4 10 -10 0 -5 6 -10 14 -10 9 0 13 -15 13 -55 0 -47 -3 -55 -18 -55 -11
0 -24 9 -31 20 -15 24 -50 28 -42 5 5 -11 -1 -15 -20 -15 -15 0 -31 -8 -38
-20 -14 -22 -58 -28 -58 -7 0 6 -5 4 -11 -5 -15 -27 -26 -22 -40 17 -15 40
-29 44 -47 14 -14 -22 -2 -49 21 -49 6 0 19 -8 30 -17 18 -17 19 -17 32 0 13
17 84 25 99 10 4 -5 20 -9 34 -10 75 -7 86 -9 90 -20 2 -7 -2 -13 -10 -13 -11
0 -15 -33 -9 -69 2 -11 71 64 71 76 0 16 22 17 36 3 10 -10 59 -17 79 -11 6 2
21 3 35 2 24 -1 24 -1 4 -15 -12 -9 -36 -13 -57 -11 -21 1 -39 -1 -42 -5 -3
-5 -23 -11 -45 -15 -33 -6 -38 -10 -31 -23 9 -18 4 -45 -8 -38 -4 3 -7 -4 -7
-15 0 -10 3 -19 7 -19 7 0 25 -78 21 -93 -1 -4 3 -17 9 -28 8 -16 14 -18 22
-10 6 6 31 11 55 11 l43 0 -17 -29 c-9 -15 -24 -27 -33 -26 -9 1 -10 0 -3 -2
14 -5 17 -93 3 -93 -5 0 -12 6 -14 13 -3 7 -6 5 -6 -5 -1 -10 4 -18 10 -18 7
0 9 -11 6 -26 -6 -32 17 -84 26 -59 4 8 15 15 25 15 11 0 25 7 32 15 7 8 19
15 26 15 19 0 18 -29 -1 -37 -24 -9 -47 -60 -37 -81 5 -10 4 -25 -2 -38 -11
-21 -12 -21 -46 7 -47 40 -64 38 -57 -5 6 -37 -6 -56 -36 -56 -10 0 -21 -9
-24 -20 -3 -11 -12 -20 -20 -20 -11 0 -13 7 -9 25 9 36 -3 31 -20 -10 -20 -48
-18 -69 4 -60 14 5 15 4 5 -6 -7 -7 -13 -25 -13 -40 0 -15 -4 -31 -10 -34 -5
-3 -10 -14 -10 -23 0 -12 3 -13 12 -4 18 18 46 14 53 -7 8 -27 30 -17 56 25
19 31 24 34 54 28 23 -4 41 -1 57 10 12 9 31 16 41 16 18 0 18 -2 5 -22 -8
-13 -26 -29 -40 -38 -70 -42 -88 -55 -88 -65 -1 -14 -77 -48 -94 -42 -19 8
-36 -13 -36 -43 0 -25 -23 -68 -44 -82 -6 -4 -19 -5 -28 -2 -16 5 -20 -1 -17
-22 0 -4 -5 -11 -13 -15 -11 -7 -11 -9 1 -9 9 0 11 -8 7 -24 -3 -14 -2 -27 4
-31 14 -9 0 -37 -16 -31 -9 3 -14 -2 -14 -13 0 -27 26 -33 67 -16 39 16 73 20
73 7 0 -5 -14 -18 -31 -31 -28 -21 -37 -22 -124 -17 -59 4 -96 2 -100 -4 -3
-5 -16 -10 -28 -10 -16 0 -11 -5 18 -20 22 -11 45 -20 52 -20 19 0 55 -22 79
-48 22 -24 35 -26 97 -16 36 6 39 9 35 35 -5 32 3 42 46 56 42 13 76 -4 76
-39 0 -22 -5 -27 -27 -30 -34 -4 -43 -33 -14 -43 30 -9 27 -35 -4 -35 -16 0
-25 -6 -25 -15 0 -8 5 -15 10 -15 6 0 10 -8 10 -17 0 -12 -3 -14 -11 -6 -7 7
-21 8 -39 3 -20 -6 -30 -4 -34 5 -2 7 -24 16 -47 20 -47 8 -82 22 -120 48 -15
10 -55 20 -95 24 -108 10 -126 9 -134 -7 -4 -8 -12 -25 -18 -36 -6 -12 -8 -31
-5 -43 5 -19 1 -21 -36 -21 -33 0 -39 -3 -34 -16 3 -9 13 -14 23 -11 10 2 24
1 31 -4 10 -6 6 -11 -15 -19 -16 -6 -33 -10 -40 -9 -6 1 -27 1 -46 0 l-35 -1
24 -19 23 -18 -47 -1 c-33 0 -45 3 -42 12 8 21 -48 34 -123 29 -65 -4 -70 -3
-70 16 0 12 5 21 10 21 20 0 9 46 -16 65 -14 11 -34 28 -45 38 -10 9 -19 13
-19 7 0 -19 -45 -3 -46 16 -2 37 -4 42 -24 47 -12 3 -20 14 -20 26 l0 22 30
-22 c16 -12 27 -26 24 -30 -3 -5 1 -6 9 -3 19 7 70 -14 62 -26 -3 -5 0 -10 7
-10 16 -1 68 -45 68 -58 0 -17 28 -21 34 -6 3 8 16 14 30 14 14 0 27 4 30 9 3
4 16 6 30 4 35 -7 41 14 6 22 -16 4 -30 13 -30 21 0 8 -3 14 -7 14 -16 0 -31
48 -20 59 8 8 7 11 -4 11 -20 0 -52 34 -42 44 5 4 1 7 -7 5 -8 -1 -33 3 -54 9
-22 6 -43 9 -48 6 -4 -3 -8 0 -8 5 0 6 -3 10 -7 10 -25 -4 -53 3 -53 12 0 7
12 10 28 7 34 -5 53 12 45 40 -2 11 0 23 6 26 7 5 11 -4 11 -23 0 -33 22 -51
62 -51 l23 1 -24 20 c-13 11 -30 18 -38 15 -7 -3 -13 1 -13 9 0 10 10 15 29
15 34 0 47 13 28 28 -12 11 -94 28 -109 24 -5 -1 -8 5 -8 13 0 8 5 15 11 15 7
0 9 11 6 30 -5 23 -3 28 8 23 8 -3 15 -11 15 -19 0 -24 2 -29 19 -41 20 -13
77 -11 92 4 7 7 -2 15 -30 27 -25 9 -41 22 -41 32 0 17 22 16 64 -1 13 -6 17
-4 14 5 -2 7 -11 14 -20 16 -37 5 -55 15 -54 32 1 9 -3 17 -9 17 -5 0 -9 -3
-7 -7 1 -5 -9 -8 -23 -8 -18 0 -23 -4 -19 -15 4 -8 2 -15 -4 -15 -6 0 -13 6
-15 13 -3 7 -6 4 -6 -6 -1 -13 -7 -17 -23 -15 -26 4 -37 28 -12 28 31 0 -1 23
-36 25 -35 3 -67 25 -37 25 21 0 23 28 2 36 -8 4 -15 15 -15 25 0 10 -4 19 -9
19 -11 0 -24 31 -16 38 3 3 13 -2 22 -10 12 -11 37 -15 76 -15 47 1 57 4 57
19 0 12 10 18 33 20 32 3 32 3 37 69 6 80 3 100 -15 93 -7 -3 -16 0 -20 6 -4
7 -1 10 10 8 10 -2 20 3 22 10 3 6 -2 12 -11 12 -9 0 -16 7 -16 15 0 8 -4 15
-10 15 -5 0 -10 -9 -10 -20 0 -11 -7 -20 -15 -20 -13 0 -14 4 -5 20 12 22 1
27 -17 9 -8 -8 -23 -7 -58 4 -25 9 -52 14 -60 10 -8 -3 -15 0 -15 6 0 7 22 8
65 4 56 -5 68 -3 84 13 14 15 16 25 9 52 -7 23 -6 38 2 48 25 29 34 -9 20 -81
-5 -21 0 -36 10 -30 6 3 10 24 10 46 0 28 4 39 15 39 8 0 15 4 15 10 0 5 -7 7
-15 4 -11 -5 -13 -2 -9 9 3 9 18 18 32 20 26 4 26 4 5 12 -13 4 -23 14 -23 21
0 17 -20 19 -20 2 0 -7 -5 -5 -11 5 -8 14 -7 23 7 38 9 10 23 19 29 19 12 0
30 70 26 98 -1 8 5 19 15 26 16 12 16 14 -2 33 -10 11 -23 27 -29 36 -14 23
-78 48 -95 37 -11 -7 -7 -10 13 -15 15 -4 27 -11 27 -16 0 -11 -7 -11 -49 -3
-25 5 -29 9 -20 20 8 10 8 14 1 14 -18 0 -31 -33 -21 -52 6 -12 6 -18 -1 -18
-5 0 -10 4 -10 9 0 5 -11 4 -25 -2 -27 -13 -30 -37 -6 -45 10 -3 12 0 8 12 -5
13 -2 15 19 12 14 -3 32 -13 39 -23 11 -15 11 -21 -2 -35 -17 -19 -11 -24 37
-30 32 -4 23 -24 -10 -21 -14 1 -40 3 -57 4 -18 0 -33 6 -33 13 0 15 -58 47
-65 36 -3 -5 -19 -1 -36 8 -23 13 -28 22 -24 39 5 23 -24 63 -45 63 -5 0 -10
5 -10 11 0 6 12 9 28 7 21 -2 32 -13 51 -50 l23 -46 24 25 c13 14 21 30 17 36
-3 5 -5 37 -4 71 0 34 -3 68 -9 76 -8 13 -10 13 -10 -2 0 -12 -5 -15 -16 -11
-13 5 -15 16 -11 49 3 32 1 44 -11 49 -21 8 -25 0 -12 -25 6 -12 9 -25 5 -28
-9 -9 -40 13 -41 29 -2 35 -5 40 -14 34 -6 -3 -13 0 -16 8 -3 9 -13 13 -24 10
-21 -6 -95 16 -86 25 3 3 22 5 41 4 19 -1 35 3 35 8 0 6 -13 10 -28 10 -15 0
-33 5 -40 12 -8 8 -14 5 -21 -15 -13 -34 -30 -35 -23 -2 2 15 0 25 -7 25 -7 0
-9 5 -6 10 3 6 1 10 -5 10 -7 0 -9 7 -6 16 3 8 2 13 -3 10 -5 -3 -12 2 -15 11
-8 19 -21 9 -30 -22 -3 -12 -4 -9 -2 8 2 15 -1 30 -5 33 -5 3 -9 1 -9 -4 0 -5
-12 -7 -26 -4 -20 4 -25 2 -19 -8 11 -18 -19 -38 -50 -32 -14 2 -25 8 -25 12
0 5 -8 6 -18 3 -19 -5 -19 -18 2 -123 2 -8 14 -17 27 -20 26 -7 27 -16 15 -87
-6 -31 -4 -41 6 -40 45 2 67 -5 71 -20 3 -12 5 -8 6 9 1 17 -7 32 -21 42 -12
9 -19 18 -16 21 3 3 17 -4 32 -16 28 -22 76 -20 76 2 0 8 4 8 14 0 7 -6 35
-14 62 -17 67 -7 84 -13 84 -29 0 -10 -9 -13 -30 -10 -36 4 -39 -11 -5 -27 14
-6 25 -17 25 -25 0 -15 -46 -18 -55 -4 -3 5 -19 9 -37 9 -28 -1 -29 -2 -13
-15 11 -7 36 -13 57 -13 26 0 41 -5 45 -16 10 -27 -10 -34 -52 -19 -22 8 -56
14 -76 15 -33 0 -36 -2 -31 -25 3 -18 0 -25 -12 -25 -18 0 -19 7 -7 67 5 24 4
40 0 37 -5 -3 -9 -17 -10 -32 0 -18 -3 -22 -7 -12 -5 11 -25 15 -74 16 -65 0
-67 -1 -62 -22 3 -12 1 -25 -6 -29 -6 -4 -8 -16 -5 -27 5 -14 1 -21 -14 -25
-12 -3 -21 -9 -21 -14 0 -8 10 -11 78 -25 16 -3 22 -11 22 -30 0 -30 18 -38
53 -25 18 7 27 18 27 32 0 12 3 19 7 15 4 -4 6 -23 4 -42 -2 -23 3 -42 15 -55
9 -10 12 -19 6 -19 -6 0 -14 5 -17 10 -4 6 -11 8 -16 4 -5 -3 -7 -9 -4 -14 7
-12 -6 -41 -16 -35 -4 3 -5 16 0 28 5 12 5 31 2 41 -7 18 -9 17 -27 -6 -10
-13 -24 -23 -30 -21 -6 2 -14 -6 -17 -17 -4 -17 -11 -20 -29 -16 l-23 6 23
-11 c21 -11 28 -29 17 -41 -3 -3 -22 -2 -43 2 -59 10 -65 3 -35 -41 14 -21 30
-39 34 -39 5 0 9 -7 9 -16 0 -12 -6 -15 -22 -10 -13 4 -41 9 -62 12 -22 2 -44
8 -49 13 -6 6 5 9 32 6 22 -2 41 -1 41 3 0 4 -20 16 -45 28 -46 21 -46 21 -56
1 -8 -15 -8 -22 2 -29 11 -8 11 -9 -1 -5 -8 2 -16 16 -18 31 -3 26 43 210 58
231 21 29 49 183 55 302 4 73 11 130 16 127 15 -9 10 21 -11 68 -11 25 -26 76
-34 114 -15 68 -67 231 -87 269 -6 11 -22 29 -36 39 -15 11 -23 14 -19 8 4 -7
3 -12 -3 -12 -5 0 -11 -8 -13 -17 -3 -14 -8 -10 -21 14 -26 50 -39 85 -27 78
6 -3 10 -1 10 5 0 18 20 0 31 -27 5 -13 13 -22 19 -18 5 3 -6 39 -26 83 -20
42 -38 87 -40 100 -9 45 22 20 67 -56z m1379 68 c0 -5 -7 -10 -15 -10 -8 0
-15 5 -15 10 0 6 7 10 15 10 8 0 15 -4 15 -10z m250 -16 c0 -8 -4 -12 -10 -9
-5 3 -10 10 -10 16 0 5 5 9 10 9 6 0 10 -7 10 -16z m-5506 -11 c4 -5 15 -8 24
-9 60 -4 60 -4 55 -24 -4 -13 -11 -19 -22 -16 -9 3 -29 8 -46 12 -41 9 -45 12
-38 29 6 16 16 19 27 8z m1369 -25 c8 7 20 6 37 -3 l25 -14 -23 -1 c-33 0 -17
-20 16 -20 48 0 72 -11 72 -32 0 -18 -2 -19 -17 -7 -11 10 -14 10 -9 2 8 -14
-6 -18 -18 -6 -3 4 -15 7 -25 8 -16 1 -17 -1 -8 -17 11 -17 12 -17 18 0 6 16
7 16 14 0 4 -9 13 -14 21 -11 9 3 14 -2 14 -17 0 -18 -4 -20 -22 -14 -13 5
-46 8 -74 9 -36 0 -58 6 -72 18 -12 11 -26 16 -31 12 -6 -3 -11 -2 -11 4 0 6
-7 7 -17 4 -11 -4 -14 -3 -9 5 4 7 18 12 31 12 13 0 27 5 31 12 5 8 10 7 18
-3 18 -23 33 -20 28 6 -2 14 -8 25 -13 25 -4 0 -13 9 -19 21 -11 19 -10 20 10
9 14 -8 25 -8 33 -2z m-1257 -25 c-10 -10 -19 5 -10 18 6 11 8 11 12 0 2 -7 1
-15 -2 -18z m54 8 c0 -6 -4 -13 -10 -16 -5 -3 -10 1 -10 9 0 9 5 16 10 16 6 0
10 -4 10 -9z m40 -9 c0 -13 -12 -22 -22 -16 -10 6 -1 24 13 24 5 0 9 -4 9 -8z
m952 -44 c-11 -11 -42 1 -42 16 0 23 13 26 32 9 10 -9 15 -20 10 -25z m138 27
c0 -8 -4 -15 -9 -15 -13 0 -22 16 -14 24 11 11 23 6 23 -9z m-1234 -32 c-10
-10 -19 5 -10 18 6 11 8 11 12 0 2 -7 1 -15 -2 -18z m506 12 c0 -5 -5 -11 -11
-13 -6 -2 -11 4 -11 13 0 9 5 15 11 13 6 -2 11 -8 11 -13z m-431 -5 c5 0 9 -4
9 -9 0 -13 -43 -22 -53 -12 -13 13 2 33 20 27 8 -3 19 -6 24 -6z m619 0 c0 -5
-4 -10 -10 -10 -5 0 -10 5 -10 10 0 6 5 10 10 10 6 0 10 -4 10 -10z m815 -10
c23 -10 21 -11 -17 -16 -19 -2 -28 2 -28 12 0 16 15 17 45 4z m-1597 -31 c-2
-6 -8 -10 -13 -10 -5 0 -11 4 -13 10 -2 6 4 11 13 11 9 0 15 -5 13 -11z m42
-3 c0 -8 -4 -17 -9 -20 -10 -7 -23 19 -14 28 11 11 23 6 23 -8z m1060 4 c0 -5
-2 -10 -4 -10 -3 0 -8 5 -11 10 -3 6 -1 10 4 10 6 0 11 -4 11 -10z m137 -12
c7 -6 13 -7 13 -3 0 4 6 3 13 -2 6 -5 24 -8 40 -7 17 2 27 -2 27 -11 0 -9 -9
-13 -27 -11 -16 2 -28 5 -28 6 0 1 -10 3 -22 6 -18 3 -23 -1 -23 -15 0 -11 -4
-22 -9 -26 -12 -7 -43 24 -36 36 4 5 0 7 -7 4 -18 -6 -52 21 -43 35 9 14 81 5
102 -12z m518 12 c-3 -5 -12 -7 -20 -3 -21 7 -19 13 6 13 11 0 18 -4 14 -10z
m3629 -5 c-5 -12 -10 -13 -20 -4 -19 15 -18 19 6 19 13 0 18 -5 14 -15z
m-5984 -5 c0 -5 -7 -10 -16 -10 -8 0 -12 5 -9 10 3 6 10 10 16 10 5 0 9 -4 9
-10z m510 -16 c0 -8 -5 -12 -10 -9 -6 4 -8 11 -5 16 9 14 15 11 15 -7z m1484
-10 c25 -9 19 -24 -9 -24 -16 0 -25 6 -25 15 0 16 9 19 34 9z m-3873 -66 l-9
-33 -1 32 c-1 17 2 40 6 50 12 30 16 -9 4 -49z m3919 42 c0 -5 -2 -10 -4 -10
-3 0 -8 5 -11 10 -3 6 -1 10 4 10 6 0 11 -4 11 -10z m60 -5 c0 -7 -11 -12 -25
-12 -14 0 -25 5 -25 12 0 7 11 13 25 13 14 0 25 -6 25 -13z m4247 -21 c-9 -9
-28 6 -21 18 4 6 10 6 17 -1 6 -6 8 -13 4 -17z m-4347 -23 c0 -4 -10 -7 -22
-5 -31 3 -30 3 -24 13 7 10 46 3 46 -8z m3786 -18 c-10 -10 -19 5 -10 18 6 11
8 11 12 0 2 -7 1 -15 -2 -18z m-7118 6 c-2 -6 -8 -10 -13 -10 -5 0 -11 4 -13
10 -2 6 4 11 13 11 9 0 15 -5 13 -11z m3392 1 c0 -5 -5 -10 -11 -10 -5 0 -7 5
-4 10 3 6 8 10 11 10 2 0 4 -4 4 -10z m30 -5 c0 -8 -4 -15 -10 -15 -5 0 -10 7
-10 15 0 8 5 15 10 15 6 0 10 -7 10 -15z m-1446 -100 c-5 -49 -4 -65 6 -65 7
0 10 7 6 16 -3 8 1 26 10 39 10 16 12 25 4 30 -8 5 -8 11 1 21 16 20 27 9 21
-22 -3 -19 1 -31 13 -40 19 -14 12 -34 -11 -34 -8 0 -17 -13 -20 -30 -6 -26
-10 -29 -33 -24 -14 4 -29 9 -33 11 -12 7 -9 33 3 33 6 0 9 9 6 20 -3 11 -1
23 4 26 5 3 9 16 9 29 0 24 9 55 16 55 3 0 2 -29 -2 -65z m-44 33 c0 -18 -2
-20 -9 -8 -6 8 -7 18 -5 22 9 14 14 9 14 -14z m1694 -29 c-3 -5 -10 -7 -15 -3
-5 3 -7 10 -3 15 3 5 10 7 15 3 5 -3 7 -10 3 -15z m-1704 -26 c0 -41 -13 -63
-35 -63 -18 0 -23 5 -21 24 1 20 4 22 19 15 17 -10 22 -2 18 29 -1 6 3 12 9
12 5 0 10 -8 10 -17z m5000 13 c0 -11 -19 -15 -25 -6 -3 5 1 10 9 10 9 0 16
-2 16 -4z m-504 -59 c11 -11 -19 -8 -36 3 -12 8 -10 9 7 7 12 -2 26 -6 29 -10z
m-4571 -85 c-2 -3 -7 7 -11 22 -9 36 -17 33 -43 -16 l-23 -43 6 38 c3 26 1 35
-6 31 -7 -5 -8 -2 -4 5 5 7 14 10 22 7 9 -4 19 4 26 20 12 25 12 25 24 -17 7
-24 11 -45 9 -47z m4501 32 c-5 -13 -10 -14 -18 -6 -6 6 -8 18 -4 28 5 13 10
14 18 6 6 -6 8 -18 4 -28z m-52 -26 c-3 -5 -14 -8 -25 -8 -14 0 -19 7 -19 28
0 21 2 24 10 12 8 -12 10 -12 10 5 1 18 2 17 14 -5 8 -14 12 -28 10 -32z
m-4374 20 c0 -9 3 -9 11 -1 14 14 89 -5 89 -22 0 -8 -17 -14 -45 -17 -33 -2
-45 0 -45 10 0 8 -6 12 -13 9 -19 -7 -41 8 -33 22 10 15 36 14 36 -1z m5504
-12 c-5 -12 -34 -25 -56 -26 -5 0 -8 7 -8 16 0 9 6 14 13 11 8 -3 20 -1 28 4
20 13 29 11 23 -5z m91 -6 c3 -5 2 -10 -4 -10 -5 0 -13 5 -16 10 -3 6 -2 10 4
10 5 0 13 -4 16 -10z m-5692 -38 c-7 -28 -29 -29 -29 -2 0 13 5 19 13 16 7 -3
13 0 13 6 0 6 2 9 5 7 2 -3 2 -15 -2 -27z m333 1 c-10 -10 -19 5 -10 18 6 11
8 11 12 0 2 -7 1 -15 -2 -18z m4569 7 c18 -20 17 -20 -8 -20 -20 0 -27 5 -27
20 0 11 4 20 8 20 5 0 17 -9 27 -20z m588 8 c-4 -7 -8 -16 -9 -20 -1 -5 -2
-10 -3 -13 -2 -10 -41 15 -41 26 0 6 9 8 20 4 11 -4 20 -2 20 4 0 6 5 11 11
11 6 0 7 -5 2 -12z m-5583 -13 c0 -8 7 -15 16 -15 20 0 44 -24 44 -44 0 -28
19 -27 22 1 l3 28 14 -24 c7 -13 9 -26 5 -30 -21 -15 -31 -47 -22 -71 6 -17 4
-35 -8 -61 -12 -28 -13 -42 -5 -55 7 -12 11 -14 11 -5 0 11 3 11 17 0 9 -8 18
-13 20 -11 1 1 10 2 18 2 23 0 18 -41 -6 -47 -16 -5 -18 -8 -7 -15 11 -7 10
-11 -3 -21 -8 -6 -20 -31 -26 -55 -9 -35 -9 -44 3 -49 18 -7 18 -23 0 -23 -8
0 -17 -7 -20 -16 -4 -10 -13 -13 -25 -9 -15 5 -24 -2 -38 -27 -20 -39 -19 -57
8 -80 22 -19 21 -42 -2 -44 -52 -4 -51 -3 -46 -36 3 -23 -2 -42 -15 -61 -17
-24 -18 -28 -4 -33 19 -7 21 -31 4 -37 -10 -3 -10 -7 -1 -18 8 -10 9 -20 2
-29 -8 -13 -10 -13 -19 0 -8 13 -10 12 -10 -2 0 -10 -5 -18 -10 -18 -7 0 -7
-6 0 -19 13 -25 13 -41 0 -41 -5 0 -10 8 -10 18 0 29 -12 34 -24 10 -6 -13
-20 -24 -31 -27 -11 -2 -24 -9 -28 -17 -5 -8 -19 -12 -40 -9 -29 4 -28 4 6 -6
38 -11 48 -34 26 -56 -6 -6 -12 -29 -12 -52 -1 -22 -5 -41 -9 -41 -5 0 -8 -8
-8 -17 0 -15 2 -16 10 -3 7 11 10 11 10 2 0 -7 4 -11 9 -8 13 9 63 -12 57 -23
-3 -5 -21 -11 -41 -13 -25 -3 -35 0 -38 12 -2 10 -5 7 -9 -9 -6 -21 -4 -23 23
-19 16 3 27 2 24 0 -3 -3 5 -10 17 -16 30 -15 36 -46 10 -46 -26 0 -37 -41
-16 -57 11 -8 14 -18 9 -30 -5 -10 -7 -24 -6 -31 1 -7 -2 -12 -6 -11 -19 3
-33 -2 -33 -11 0 -5 9 -10 20 -10 13 0 20 -7 20 -20 0 -11 -4 -20 -10 -20 -6
0 -6 -9 0 -25 12 -33 4 -37 -47 -20 -13 4 -19 13 -16 21 6 17 -8 19 -24 3 -6
-6 -16 -8 -22 -5 -18 12 -12 26 12 27 21 0 21 1 2 8 -11 5 -23 7 -27 4 -5 -2
-8 6 -8 17 0 16 -5 20 -15 16 -9 -3 -15 0 -15 9 0 8 -4 15 -8 15 -12 0 -11 22
3 115 7 44 11 83 9 87 -10 16 19 19 36 3 17 -15 19 -14 38 13 l21 29 -67 -2
c-37 -1 -72 3 -79 7 -13 11 -19 -4 -29 -82 -11 -92 -19 -99 -34 -36 -14 60 -5
172 25 316 8 36 29 144 46 240 18 96 36 178 41 181 5 3 20 4 32 2 19 -4 24 0
30 27 11 58 9 63 -24 57 -20 -5 -30 -3 -30 6 0 12 -53 26 -192 49 -38 6 -68
16 -68 20 0 5 -5 6 -10 3 -6 -3 -30 -3 -55 1 -35 5 -45 10 -45 25 0 23 32 39
38 20 4 -11 6 -11 12 0 9 13 240 32 267 22 7 -3 20 0 28 7 10 9 15 9 15 1 0
-6 11 -10 25 -9 14 1 25 6 25 10 0 5 11 6 25 2 22 -5 25 -3 25 19 0 21 -6 25
-42 31 -30 5 -38 10 -30 18 6 6 8 16 6 23 -3 8 6 14 25 17 19 3 32 0 35 -9 7
-16 36 -6 36 13 0 21 39 26 110 15 91 -15 99 -14 70 9 -14 11 -19 20 -12 20
25 0 11 31 -17 36 -16 3 -38 18 -49 33 l-20 27 55 -4 c53 -4 55 -4 44 16 -14
26 -14 42 -1 42 6 0 10 -7 10 -15z m144 9 c25 -10 19 -34 -9 -34 -27 0 -28 1
-19 24 7 18 7 18 28 10z m4386 -9 c7 -8 8 -15 2 -15 -5 0 -15 7 -22 15 -7 8
-8 15 -2 15 5 0 15 -7 22 -15z m144 -1 c4 -10 1 -14 -6 -12 -15 5 -23 28 -10
28 5 0 13 -7 16 -16z m1306 -11 c0 -7 -9 -13 -19 -13 -23 0 -37 16 -19 22 24
8 38 5 38 -9z m45 7 c3 -6 -1 -13 -10 -16 -19 -8 -30 0 -20 15 8 14 22 14 30
1z m-5743 -12 c22 -6 43 -19 46 -27 3 -9 12 -20 19 -24 7 -5 11 -12 8 -18 -4
-5 -1 -9 4 -9 6 0 11 -7 11 -15 0 -8 3 -15 8 -16 87 -6 113 -17 89 -37 -10 -8
-26 -8 -64 2 -67 18 -73 22 -74 54 -1 27 -1 27 -8 -3 -6 -23 -3 -35 13 -50 11
-11 25 -20 30 -21 6 -1 42 -5 79 -9 45 -4 70 -12 74 -21 9 -25 -7 -30 -38 -12
-17 10 -27 13 -23 6 5 -8 -1 -9 -21 -4 -15 4 -41 10 -59 13 -17 3 -40 14 -52
24 -11 11 -24 16 -27 12 -4 -3 -7 1 -7 10 0 9 4 19 10 22 6 4 5 14 -3 27 -9
16 -9 22 1 25 23 9 13 33 -15 34 -16 1 -32 1 -36 0 -4 -1 -17 3 -27 9 -14 7
-20 7 -20 0 0 -5 6 -10 14 -10 8 0 17 -4 20 -9 10 -16 -5 -41 -24 -41 -12 0
-20 -10 -24 -32 -6 -29 -7 -30 -24 -14 -10 9 -21 13 -25 10 -3 -4 -18 -3 -32
0 -21 5 -24 10 -16 20 19 22 50 26 61 8 8 -15 11 -15 19 -2 12 18 5 30 -20 30
-20 0 -26 24 -9 35 6 3 10 -1 10 -10 0 -13 4 -14 20 -5 15 8 19 17 14 35 -6
23 -3 25 26 25 18 0 51 -5 72 -12z m4758 2 c0 -5 -4 -10 -10 -10 -5 0 -10 5
-10 10 0 6 5 10 10 10 6 0 10 -4 10 -10z m174 -10 c17 -17 1 -19 -41 -7 -59
17 -65 29 -13 22 24 -3 49 -10 54 -15z m-292 -12 c-7 -7 -12 -8 -12 -2 0 14
12 26 19 19 2 -3 -1 -11 -7 -17z m615 5 c2 -6 -4 -13 -14 -16 -17 -4 -17 -4 1
-12 13 -6 21 -4 24 3 6 18 22 4 22 -18 0 -29 -15 -32 -65 -15 -56 18 -55 18
-55 0 0 -18 -37 -38 -56 -31 -21 8 -17 23 9 30 16 4 19 8 9 14 -9 6 1 13 30
22 24 8 47 20 51 28 10 15 39 12 44 -5z m381 -23 c13 0 12 -3 -3 -20 -14 -15
-22 -17 -37 -9 -26 14 -33 36 -17 55 12 15 15 14 27 -5 8 -11 21 -21 30 -21z
m-605 8 c12 -7 29 -12 37 -13 11 0 14 -9 12 -30 -6 -77 -17 -87 -54 -54 -11
10 -32 15 -52 14 -30 -3 -32 -1 -28 21 4 22 8 24 40 19 19 -3 46 -8 60 -12 48
-12 13 13 -37 27 -29 8 -51 19 -51 27 0 16 44 17 73 1z m-218 -7 c-6 -6 -25
-6 -45 -1 l-35 8 45 1 c27 1 40 -3 35 -8z m648 -16 c-4 -15 -36 -12 -41 3 -3
9 3 13 19 10 13 -1 23 -7 22 -13z m-553 -19 c0 -24 -17 -28 -23 -6 -3 13 0 20
9 20 8 0 14 -6 14 -14z m-4910 -6 c0 -5 -7 -10 -15 -10 -8 0 -15 5 -15 10 0 6
7 10 15 10 8 0 15 -4 15 -10z m4190 -43 c0 -20 -24 1 -25 23 -2 21 -1 22 12 5
7 -11 13 -23 13 -28z m-70 13 c0 -11 -7 -20 -15 -20 -17 0 -18 2 -9 24 9 23
24 20 24 -4z m-4145 -10 c8 0 11 -7 8 -20 -3 -12 -11 -18 -17 -15 -6 3 -19 8
-28 11 -10 4 -18 10 -18 13 0 14 14 22 28 16 7 -3 20 -5 27 -5z m5163 -34 c-2
-1 -12 -8 -22 -16 -18 -14 -18 -14 -6 7 8 12 18 19 23 16 4 -3 7 -6 5 -7z
m580 -19 c-6 -12 -18 -28 -27 -37 -13 -13 -14 -13 -8 2 9 25 -10 32 -38 14
-30 -20 -35 -20 -35 -2 0 18 53 39 82 32 13 -3 17 -3 11 0 -21 9 -15 23 7 17
17 -4 18 -8 8 -26z m-1618 -3 c0 -8 -5 -12 -10 -9 -6 4 -8 11 -5 16 9 14 15
11 15 -7z m74 10 c27 -10 18 -23 -14 -21 -16 1 -30 8 -30 15 0 13 19 16 44 6z
m-4290 -41 c-7 -2 -10 -12 -7 -22 6 -22 -12 -37 -20 -17 -6 16 22 61 32 50 3
-4 1 -9 -5 -11z m4461 7 c3 -5 -1 -10 -10 -10 -9 0 -13 5 -10 10 3 6 8 10 10
10 2 0 7 -4 10 -10z m85 -20 c0 -23 2 -23 -39 -9 -41 15 -40 29 4 29 28 0 35
-4 35 -20z m-4591 -12 c-11 -20 -29 -15 -29 7 0 8 9 13 19 12 16 -1 18 -5 10
-19z m4321 -1 c0 -7 -9 -13 -20 -14 -25 -2 -27 14 -2 20 9 3 18 5 20 6 1 0 2
-5 2 -12z m120 -4 c0 -5 -5 -15 -10 -23 -8 -12 -10 -11 -10 8 0 12 5 22 10 22
6 0 10 -3 10 -7z m-4280 -18 c0 -18 -23 -18 -70 0 l-35 13 53 1 c40 1 52 -2
52 -14z m4390 -15 c0 -5 -4 -10 -10 -10 -5 0 -10 5 -10 10 0 6 5 10 10 10 6 0
10 -4 10 -10z m1470 -2 c0 -4 -9 -8 -20 -8 -11 0 -20 4 -20 9 0 6 9 9 20 8 11
-1 20 -5 20 -9z m-5875 -39 c4 -6 5 -13 2 -15 -7 -8 -57 7 -57 17 0 13 47 11
55 -2z m5715 -55 c0 -8 -4 -14 -10 -14 -5 0 -10 9 -10 21 0 11 5 17 10 14 6
-3 10 -13 10 -21z m-1235 -4 c3 -5 1 -10 -4 -10 -6 0 -11 5 -11 10 0 6 2 10 4
10 3 0 8 -4 11 -10z m55 -16 c0 -16 -16 -19 -25 -4 -8 13 4 32 16 25 5 -4 9
-13 9 -21z m-4462 -12 c3 -9 -3 -13 -19 -10 -12 1 -24 9 -27 16 -3 9 3 13 19
10 12 -1 24 -9 27 -16z m86 -7 c45 -19 40 -33 -8 -27 -38 4 -51 15 -41 32 8
13 6 13 49 -5z m4036 -36 c0 -5 -4 -9 -10 -9 -5 0 -10 7 -10 16 0 8 5 12 10 9
6 -3 10 -10 10 -16z m610 -9 c0 -11 -4 -20 -9 -20 -6 0 -9 9 -8 20 1 11 5 20
9 20 4 0 8 -9 8 -20z m-656 4 c17 -7 22 -34 7 -34 -21 0 -41 13 -41 26 0 15
10 17 34 8z m614 -21 c6 -19 -45 -16 -52 3 -5 12 0 15 21 12 14 -2 28 -9 31
-15z m1082 2 c0 -10 -49 -55 -60 -55 -18 0 -11 27 13 43 22 16 47 22 47 12z
m-1510 -15 c10 -6 12 -12 5 -19 -13 -13 -67 0 -73 17 -4 14 46 16 68 2z m108
-12 c7 -7 12 -20 12 -29 0 -10 6 -24 13 -31 18 -19 20 -78 2 -78 -10 0 -15 10
-15 30 0 34 -25 90 -40 90 -6 0 -10 7 -10 15 0 18 21 20 38 3z m-7861 -30 c-3
-8 -6 -5 -6 6 -1 11 2 17 5 13 3 -3 4 -12 1 -19z m7563 12 c0 -5 -7 -10 -15
-10 -8 0 -15 5 -15 10 0 6 7 10 15 10 8 0 15 -4 15 -10z m100 -14 c0 -15 -18
-31 -26 -23 -7 7 7 37 17 37 5 0 9 -6 9 -14z m55 -16 c3 -5 1 -10 -4 -10 -6 0
-11 5 -11 10 0 6 2 10 4 10 3 0 8 -4 11 -10z m-7708 -52 c-2 -13 -4 -5 -4 17
-1 22 1 32 4 23 2 -10 2 -28 0 -40z m8198 43 c3 -5 1 -12 -5 -16 -5 -3 -10 1
-10 9 0 18 6 21 15 7z m-4971 -17 c18 -7 21 -30 6 -39 -6 -4 -17 -1 -25 5 -8
7 -22 10 -30 6 -13 -4 -14 -2 -5 14 11 21 27 25 54 14z m96 -29 c0 -9 -9 -15
-25 -15 -16 0 -25 6 -25 15 0 9 9 15 25 15 16 0 25 -6 25 -15z m4443 -2 c9 -2
17 -8 17 -13 0 -15 -35 -16 -84 -2 -35 10 -45 16 -35 23 13 8 57 5 102 -8z
m348 -3 c19 0 29 -5 29 -15 0 -12 -8 -14 -41 -9 -33 6 -41 4 -37 -7 2 -8 18
-15 34 -17 16 -2 33 -7 38 -12 11 -11 -90 -3 -111 9 -17 9 -17 10 0 17 17 6
17 7 0 20 -15 11 -16 15 -4 23 9 6 24 6 38 0 14 -5 38 -9 54 -9z m-4756 -10
c-3 -5 -10 -10 -16 -10 -5 0 -9 5 -9 10 0 6 7 10 16 10 8 0 12 -4 9 -10z
m-130 -30 c3 -5 -3 -10 -14 -10 -12 0 -21 5 -21 10 0 6 6 10 14 10 8 0 18 -4
21 -10z m65 -5 c0 -8 -7 -15 -15 -15 -9 0 -12 6 -9 15 4 8 10 15 15 15 5 0 9
-7 9 -15z m103 -18 c36 -16 34 -23 -8 -24 -19 -1 -35 3 -35 9 0 5 -4 7 -9 4
-5 -4 -16 -3 -25 0 -13 5 -14 9 -5 20 12 15 29 13 82 -9z m4292 13 c3 -5 -1
-10 -10 -10 -9 0 -13 5 -10 10 3 6 8 10 10 10 2 0 7 -4 10 -10z m187 -12 c-7
-7 -12 -8 -12 -2 0 14 12 26 19 19 2 -3 -1 -11 -7 -17z m1518 7 c10 -13 9 -15
-8 -15 -15 0 -20 5 -16 15 4 8 7 15 9 15 1 0 8 -7 15 -15z m-5857 -24 c55 -10
62 -14 54 -35 -5 -12 -15 -14 -38 -9 -21 4 -34 2 -40 -8 -6 -10 -9 -10 -9 -2
0 15 -55 45 -64 36 -3 -4 -6 1 -6 10 0 11 5 14 17 10 11 -5 14 -3 8 6 -5 10
-2 11 11 7 11 -3 41 -10 67 -15z m-363 -9 c0 -4 17 -6 38 -4 20 2 59 -4 85
-12 27 -8 55 -12 63 -9 9 3 14 -2 14 -16 0 -12 -6 -21 -15 -21 -8 0 -15 3 -15
8 0 4 -25 8 -56 10 -30 2 -67 7 -80 13 -14 5 -36 9 -50 9 -15 0 -24 6 -24 15
0 8 9 15 20 15 11 0 20 -3 20 -8z m4554 -25 c3 3 6 2 6 -4 0 -6 -6 -13 -14
-16 -22 -9 -86 12 -86 28 0 21 32 23 61 3 14 -9 29 -15 33 -11z m-6064 -6 c0
-23 -25 -47 -35 -32 -3 6 -8 20 -10 31 -3 16 2 20 21 20 17 0 24 -6 24 -19z
m95 -58 c-4 -11 -9 -13 -16 -6 -6 6 -6 19 2 39 12 28 13 28 17 6 2 -13 1 -31
-3 -39z m1415 37 c0 -5 3 -9 8 -9 4 1 12 0 17 -1 6 -1 26 -2 45 -3 25 -2 36
-7 38 -21 4 -16 0 -18 -30 -11 -18 4 -50 8 -71 9 -36 1 -61 21 -51 38 7 12 44
10 44 -2z m4937 -17 c5 -15 -28 -22 -56 -11 -18 6 -21 11 -12 22 13 16 62 8
68 -11z m-510 -5 c-3 -8 -6 -5 -6 6 -1 11 2 17 5 13 3 -3 4 -12 1 -19z m146
-5 c4 -2 7 -9 7 -14 0 -7 -16 -8 -42 -4 -61 9 -78 15 -78 26 0 10 95 3 113 -8z
m-4378 -4 c3 -4 2 -14 -1 -23 -10 -26 -74 -9 -74 19 0 10 11 14 35 13 20 -1
38 -5 40 -9z m-1388 -31 c-3 -7 -5 -2 -5 12 0 14 2 19 5 13 2 -7 2 -19 0 -25z
m6046 9 c-2 -4 -5 -7 -8 -7 -3 0 -12 0 -20 0 -8 0 -15 4 -15 10 0 5 10 8 23 6
12 -1 21 -6 20 -9z m-4831 -10 c7 -7 30 -12 51 -11 31 2 37 0 37 -17 0 -23
-25 -25 -85 -7 -22 6 -46 11 -52 9 -7 -1 -13 5 -13 13 0 10 6 13 15 10 8 -4
15 -1 15 5 0 15 16 14 32 -2z m4918 -2 c0 -8 -9 -15 -20 -15 -20 0 -26 11 -13
23 12 13 33 7 33 -8z m-6170 -5 c0 -5 -4 -10 -10 -10 -5 0 -10 5 -10 10 0 6 5
10 10 10 6 0 10 -4 10 -10z m5647 -12 c-3 -8 -6 -5 -6 6 -1 11 2 17 5 13 3 -3
4 -12 1 -19z m-5467 -3 c0 -8 -4 -15 -10 -15 -5 0 -10 7 -10 15 0 8 5 15 10
15 6 0 10 -7 10 -15z m1230 -20 c0 -17 -4 -18 -37 -9 -33 9 -28 24 7 24 20 0
30 -5 30 -15z m127 3 c15 -6 33 -12 38 -12 75 -10 117 -27 102 -43 -8 -7 -199
28 -214 40 -33 25 23 36 74 15z m-3537 -18 c0 -5 -5 -10 -11 -10 -5 0 -7 5 -4
10 3 6 8 10 11 10 2 0 4 -4 4 -10z m2136 -1 c10 -17 -13 -36 -27 -22 -12 12
-4 33 11 33 5 0 12 -5 16 -11z m1114 -10 c0 -5 -4 -9 -9 -9 -5 0 -16 -3 -25
-6 -10 -4 -16 -1 -16 9 0 8 6 17 13 20 16 5 37 -3 37 -14z m4387 -1 c-3 -8 -6
-5 -6 6 -1 11 2 17 5 13 3 -3 4 -12 1 -19z m-2059 -14 c11 6 29 -28 35 -66 4
-24 2 -26 -14 -17 -18 9 -69 87 -69 104 0 4 9 0 19 -9 11 -10 24 -15 29 -12z
m1709 4 c-3 -8 -6 -5 -6 6 -1 11 2 17 5 13 3 -3 4 -12 1 -19z m-3947 -8 c0 -5
-4 -10 -10 -10 -5 0 -10 5 -10 10 0 6 5 10 10 10 6 0 10 -4 10 -10z m2315 0
c3 -5 -1 -10 -9 -10 -9 0 -16 5 -16 10 0 6 4 10 9 10 6 0 13 -4 16 -10z m1785
0 c0 -5 -8 -10 -17 -10 -15 0 -16 2 -3 10 19 12 20 12 20 0z m60 -10 c0 -5 -4
-10 -10 -10 -5 0 -10 5 -10 10 0 6 5 10 10 10 6 0 10 -4 10 -10z m127 -32 c-3
-8 -6 -5 -6 6 -1 11 2 17 5 13 3 -3 4 -12 1 -19z m245 -19 c14 -8 17 -13 9
-18 -18 -12 -71 0 -71 15 0 17 33 18 62 3z m-255 -41 c-3 -8 -6 -5 -6 6 -1 11
2 17 5 13 3 -3 4 -12 1 -19z m243 -4 c27 -9 -9 -22 -43 -15 -43 9 -49 33 -5
25 18 -3 40 -8 48 -10z m1270 6 c0 -5 -2 -10 -4 -10 -3 0 -8 5 -11 10 -3 6 -1
10 4 10 6 0 11 -4 11 -10z m-1276 -51 c5 -5 8 -11 5 -13 -7 -8 -129 18 -129
26 0 10 112 -2 124 -13z m134 -15 c-2 -1 -16 0 -33 3 -25 5 -27 7 -10 13 17 6
52 -7 43 -16z m-2364 -33 c-2 -2 1 -12 7 -22 5 -11 7 -19 5 -19 -6 0 -36 55
-36 65 0 3 6 0 14 -7 8 -7 12 -15 10 -17z m-1884 2 c0 -23 -17 -49 -26 -41 -9
10 4 58 16 58 6 0 10 -8 10 -17z m4116 -8 c13 -13 27 -25 29 -25 3 0 10 0 15
0 6 0 10 -9 10 -20 0 -22 -12 -21 -119 6 -30 7 -58 11 -62 8 -4 -2 -11 1 -15
7 -5 9 11 11 64 6 72 -6 99 6 42 18 -34 7 -41 25 -10 25 12 0 32 -11 46 -25z
m-2232 -68 c20 -37 36 -71 36 -76 0 -10 -57 -45 -90 -56 -23 -7 -23 -6 -16 56
7 62 26 153 31 147 1 -2 19 -33 39 -71z m-1717 26 c-3 -10 -5 -4 -5 12 0 17 2
24 5 18 2 -7 2 -21 0 -30z m-1977 -8 c0 -8 -4 -15 -10 -15 -5 0 -10 7 -10 15
0 8 5 15 10 15 6 0 10 -7 10 -15z m5840 -20 c0 -8 -7 -15 -15 -15 -16 0 -20
12 -8 23 11 12 23 8 23 -8z m-3873 -27 c-3 -8 -6 -5 -6 6 -1 11 2 17 5 13 3
-3 4 -12 1 -19z m3997 16 c25 -9 19 -24 -9 -24 -24 0 -32 10 -18 23 8 8 8 8
27 1z m-101 -25 c38 -8 57 -17 57 -26 0 -11 -8 -14 -32 -10 -67 11 -128 29
-128 38 0 12 35 11 103 -2z m178 1 c6 0 8 -4 5 -9 -8 -12 -46 -2 -46 11 0 6 7
7 16 4 9 -3 20 -6 25 -6z m97 -48 c18 -4 32 -11 31 -17 0 -5 -4 -9 -9 -8 -4 1
-45 7 -90 12 -107 14 -136 36 -35 26 39 -3 85 -9 103 -13z m-213 -13 l40 -12
-34 -8 c-19 -4 -41 -3 -50 1 -9 5 -33 12 -53 15 -21 3 -40 11 -44 17 -9 13 80
5 141 -13z m1362 -13 c14 -14 19 -27 14 -35 -13 -20 -52 4 -44 26 5 12 2 15
-8 11 -9 -4 -21 2 -27 13 -11 18 -10 19 15 13 16 -4 38 -17 50 -28z m-1297 -6
c0 -5 -2 -10 -4 -10 -3 0 -8 5 -11 10 -3 6 -1 10 4 10 6 0 11 -4 11 -10z
m-326 -26 c7 -19 2 -18 -19 6 -16 17 -16 20 -3 15 9 -4 19 -13 22 -21z m419
20 c22 -4 37 -12 37 -21 0 -9 -5 -11 -12 -6 -7 4 -30 8 -52 9 -44 2 -76 24
-35 24 13 0 41 -3 62 -6z m-6425 -13 c16 -1 15 -23 -3 -47 -14 -19 -15 -19
-21 4 -3 12 -13 22 -20 22 -8 0 -14 7 -14 15 0 10 7 14 23 11 12 -3 28 -5 35
-5z m7591 -65 c0 -20 -1 -20 -10 2 -7 18 -14 22 -30 17 -27 -9 -65 1 -72 19
-5 11 1 13 27 9 21 -3 36 -1 41 8 11 17 45 -25 44 -55z m-5743 -14 c-11 -10
-14 3 -8 33 l7 30 3 -28 c2 -16 1 -31 -2 -35z m4481 52 c-3 -3 -12 -4 -19 -1
-8 3 -5 6 6 6 11 1 17 -2 13 -5z m-292 -35 c22 -42 16 -51 -23 -32 -22 11 -29
19 -21 24 6 4 9 14 6 23 -12 30 22 17 38 -15z m625 16 c7 -9 8 -15 2 -15 -5 0
-12 7 -16 15 -3 8 -4 15 -2 15 2 0 9 -7 16 -15z m-4602 -12 c-2 -9 -15 -25
-29 -36 -24 -17 -31 -18 -63 -7 -28 9 -36 17 -36 35 0 23 3 24 66 24 54 0 65
-3 62 -16z m4286 -13 c8 -9 1 -10 -29 -4 -59 10 -80 26 -26 20 24 -2 49 -10
55 -16z m206 -36 c0 -2 -7 -4 -15 -4 -8 0 -15 4 -15 10 0 5 7 7 15 4 8 -4 15
-8 15 -10z m50 -29 c0 -6 -9 -11 -20 -11 -19 0 -25 7 -15 18 9 9 35 5 35 -7z
m945 -15 c0 -16 -36 -17 -110 -4 l-40 8 30 7 c52 12 120 6 120 -11z m418 10
c8 0 8 -3 1 -10 -12 -12 -44 -3 -44 12 0 6 7 7 16 4 9 -3 21 -6 27 -6z m-1931
-79 c-5 -3 -12 -13 -15 -21 -3 -10 -6 -7 -6 8 -1 13 5 33 11 45 l13 22 3 -24
c2 -13 0 -26 -6 -30z m395 10 c25 -32 14 -42 -22 -19 -40 26 -51 67 -12 47 12
-7 27 -19 34 -28z m1303 29 c0 -5 -4 -10 -10 -10 -5 0 -10 5 -10 10 0 6 5 10
10 10 6 0 10 -4 10 -10z m-6510 -30 c8 -5 11 -10 5 -10 -5 0 -17 5 -25 10 -8
5 -10 10 -5 10 6 0 17 -5 25 -10z m70 6 c0 -3 -4 -8 -10 -11 -5 -3 -10 -1 -10
4 0 6 5 11 10 11 6 0 10 -2 10 -4z m5065 -6 c3 -5 1 -10 -4 -10 -6 0 -11 5
-11 10 0 6 2 10 4 10 3 0 8 -4 11 -10z m268 -43 c9 -1 17 -4 17 -8 0 -4 13 -5
29 -3 22 4 33 -1 45 -18 19 -27 4 -41 -31 -27 -12 5 -23 7 -23 4 0 -2 -25 5
-57 16 -31 10 -64 19 -75 19 -10 0 -18 7 -18 15 0 11 10 13 48 9 26 -3 55 -6
65 -7z m-4811 -62 c-6 -35 -19 -31 -14 5 2 16 8 28 12 25 4 -2 5 -16 2 -30z
m4256 -9 c-4 -16 42 -77 53 -71 5 4 9 1 9 -5 0 -6 4 -9 9 -5 25 15 38 -82 15
-112 -7 -10 -14 -13 -14 -8 0 6 -12 11 -27 12 -15 0 -29 6 -31 12 -5 15 -33
14 -29 -1 1 -7 -9 -14 -23 -15 -14 -1 -18 0 -10 4 24 10 47 46 42 65 -2 10 -8
18 -13 18 -5 0 -9 9 -9 20 0 11 5 20 11 20 12 0 8 46 -7 85 -7 18 -6 19 9 6
10 -7 16 -19 15 -25z m-3870 -41 c12 -12 -17 -26 -42 -19 -26 6 -32 15 -19 27
7 7 52 1 61 -8z m-248 -21 c0 -11 -5 -14 -16 -10 -9 3 -20 6 -25 6 -5 0 -9 5
-9 10 0 6 11 10 25 10 16 0 25 -6 25 -16z m450 -24 c0 -5 -5 -10 -11 -10 -5 0
-7 5 -4 10 3 6 8 10 11 10 2 0 4 -4 4 -10z m220 -12 c0 18 24 15 43 -5 13 -16
14 -21 2 -37 -12 -16 -20 -18 -47 -10 -19 6 -34 17 -36 28 -5 22 19 40 30 23
6 -9 8 -9 8 1z m4530 2 c0 -5 -2 -10 -4 -10 -3 0 -8 5 -11 10 -3 6 -1 10 4 10
6 0 11 -4 11 -10z m-4970 -9 c10 -1 11 -4 3 -12 -11 -11 -66 -1 -58 11 3 5 13
7 23 5 9 -2 24 -4 32 -4z m-560 -17 c0 -8 -4 -12 -10 -9 -5 3 -10 10 -10 16 0
5 5 9 10 9 6 0 10 -7 10 -16z m1185 -4 c20 -7 26 -16 23 -33 -2 -18 -9 -22
-40 -21 -68 2 -126 41 -85 57 21 9 75 7 102 -3z m3795 -15 c0 -7 -11 -12 -25
-12 -14 0 -25 5 -25 12 0 7 11 13 25 13 14 0 25 -6 25 -13z m550 -21 c0 -8 -9
-14 -20 -14 -19 0 -27 19 -14 33 10 9 34 -4 34 -19z m-1120 -4 c0 -6 -11 -8
-27 -4 -40 10 -41 14 -5 14 18 0 32 -5 32 -10z m1160 0 c0 -5 -7 -10 -15 -10
-8 0 -15 5 -15 10 0 6 7 10 15 10 8 0 15 -4 15 -10z m-4990 -16 c0 -7 -10 -9
-25 -6 -37 7 -42 23 -6 20 17 -1 31 -7 31 -14z m4275 -4 c3 -5 1 -10 -4 -10
-6 0 -11 5 -11 10 0 6 2 10 4 10 3 0 8 -4 11 -10z m75 -22 c0 -6 -7 -7 -16 -4
-9 3 -22 6 -30 6 -8 0 -14 4 -14 8 0 5 14 7 30 4 17 -2 30 -9 30 -14z m-3790
2 c0 -5 -5 -10 -11 -10 -5 0 -7 5 -4 10 3 6 8 10 11 10 2 0 4 -4 4 -10z m3880
0 c0 -11 -3 -12 -42 -15 -33 -2 -37 12 -5 18 39 8 47 7 47 -3z m-4160 -16 c0
-8 -5 -12 -10 -9 -6 4 -8 11 -5 16 9 14 15 11 15 -7z m3610 -13 c0 -6 -4 -13
-10 -16 -5 -3 -10 1 -10 9 0 9 5 16 10 16 6 0 10 -4 10 -9z m-4393 -7 c-3 -3
-12 -4 -19 -1 -8 3 -5 6 6 6 11 1 17 -2 13 -5z m5113 -14 c0 -5 -4 -10 -10
-10 -5 0 -10 5 -10 10 0 6 5 10 10 10 6 0 10 -4 10 -10z m150 0 c0 -5 -4 -10
-10 -10 -5 0 -10 5 -10 10 0 6 5 10 10 10 6 0 10 -4 10 -10z m-133 -56 c-3 -3
-12 -4 -19 -1 -8 3 -5 6 6 6 11 1 17 -2 13 -5z m-6871 -17 c4 -4 -1 -24 -11
-46 -16 -36 -19 -38 -44 -30 -24 8 -26 14 -23 47 2 28 1 33 -7 22 -9 -13 -11
-13 -11 3 0 14 8 17 44 14 25 -1 48 -6 52 -10z m2504 -11 c0 -3 -4 -8 -10 -11
-5 -3 -10 -1 -10 4 0 6 5 11 10 11 6 0 10 -2 10 -4z m65 -16 c4 -6 -5 -10 -24
-8 -17 1 -31 6 -31 10 0 12 48 10 55 -2z m4229 -14 c-3 -13 -1 -27 5 -30 18
-12 12 -26 -10 -26 -18 0 -20 4 -14 33 8 34 13 47 21 47 2 0 2 -11 -2 -24z
m-729 -25 c-6 -5 -20 -12 -32 -15 l-23 -7 23 25 c14 16 26 21 32 15 6 -6 6
-12 0 -18z m-2925 -10 c0 -3 10 -7 23 -8 40 -2 77 -22 77 -40 0 -10 -5 -35
-11 -57 -8 -28 -14 -35 -22 -27 -6 6 -27 11 -47 11 -28 0 -40 5 -50 24 -17 33
-5 117 16 109 7 -3 14 -8 14 -12z m-559 -11 c6 0 8 -4 5 -9 -8 -12 -46 -2 -46
11 0 6 7 7 16 4 9 -3 20 -6 25 -6z m154 -40 c3 -5 2 -10 -4 -10 -5 0 -13 5
-16 10 -3 6 -2 10 4 10 5 0 13 -4 16 -10z m4065 -23 c0 -7 -28 -2 -36 5 -3 4
-3 12 1 17 4 8 11 6 21 -3 8 -8 14 -17 14 -19z m-3340 8 c0 -8 -7 -15 -15 -15
-8 0 -15 7 -15 15 0 8 7 15 15 15 8 0 15 -7 15 -15z m40 -14 c0 -6 -4 -13 -10
-16 -5 -3 -10 1 -10 9 0 9 5 16 10 16 6 0 10 -4 10 -9z m-233 -23 c-3 -8 -6
-5 -6 6 -1 11 2 17 5 13 3 -3 4 -12 1 -19z m-800 -34 c-3 -3 -12 -4 -19 -1 -8
3 -5 6 6 6 11 1 17 -2 13 -5z m4293 -14 c0 -5 -4 -10 -10 -10 -5 0 -10 5 -10
10 0 6 5 10 10 10 6 0 10 -4 10 -10z m-16 -73 c-9 -24 -23 -11 -17 14 3 12 9
17 15 11 5 -5 6 -16 2 -25z m91 -19 c6 -6 0 -8 -19 -6 -16 2 -31 9 -34 17 -3
10 2 11 19 6 13 -4 29 -12 34 -17z m65 -7 c0 -5 -9 -7 -20 -4 -11 3 -20 7 -20
9 0 2 9 4 20 4 11 0 20 -4 20 -9z m-6980 -10 c0 -19 -20 -22 -36 -7 -14 15
-13 16 10 16 14 0 26 -4 26 -9z m6479 -36 c0 -5 -4 -3 -9 5 -5 8 -9 22 -9 30
0 16 17 -16 18 -35z m323 3 c-7 -7 -12 -8 -12 -2 0 14 12 26 19 19 2 -3 -1
-11 -7 -17z m358 7 c0 -8 -4 -15 -10 -15 -5 0 -10 7 -10 15 0 8 5 15 10 15 6
0 10 -7 10 -15z m-3897 -11 c35 -6 44 -14 31 -27 -7 -7 -106 21 -119 35 -7 7
0 8 20 4 17 -3 47 -8 68 -12z m3927 6 c0 -5 -5 -10 -11 -10 -5 0 -7 5 -4 10 3
6 8 10 11 10 2 0 4 -4 4 -10z m-4590 -36 c18 -17 7 -18 -62 -2 -50 11 -51 12
-23 19 36 8 65 2 85 -17z m4695 17 c3 -5 1 -12 -5 -16 -5 -3 -10 1 -10 9 0 18
6 21 15 7z m-500 -50 c-3 -12 -11 -19 -16 -16 -5 4 -5 14 2 26 13 26 23 18 14
-10z m345 4 c0 -8 -4 -15 -10 -15 -5 0 -10 7 -10 15 0 8 5 15 10 15 6 0 10 -7
10 -15z m-3664 -22 c-10 -10 -19 5 -10 18 6 11 8 11 12 0 2 -7 1 -15 -2 -18z
m3699 17 c3 -5 1 -10 -4 -10 -6 0 -11 5 -11 10 0 6 2 10 4 10 3 0 8 -4 11 -10z
m-3665 -15 c0 -8 -4 -15 -10 -15 -5 0 -10 7 -10 15 0 8 5 15 10 15 6 0 10 -7
10 -15z m3700 5 c0 -5 -5 -10 -11 -10 -5 0 -7 5 -4 10 3 6 8 10 11 10 2 0 4
-4 4 -10z m66 -27 c-10 -10 -19 5 -10 18 6 11 8 11 12 0 2 -7 1 -15 -2 -18z
m-500 -40 c-10 -10 -19 5 -10 18 6 11 8 11 12 0 2 -7 1 -15 -2 -18z m354 12
c0 -8 -4 -15 -10 -15 -5 0 -10 7 -10 15 0 8 5 15 10 15 6 0 10 -7 10 -15z m70
-9 c0 -3 -4 -8 -10 -11 -5 -3 -10 -1 -10 4 0 6 5 11 10 11 6 0 10 -2 10 -4z
m27 -18 c-3 -8 -6 -5 -6 6 -1 11 2 17 5 13 3 -3 4 -12 1 -19z m-357 2 c0 -13
-30 -13 -50 0 -11 7 -7 10 18 10 17 0 32 -4 32 -10z m400 -5 c0 -8 -4 -15 -10
-15 -5 0 -10 7 -10 15 0 8 5 15 10 15 6 0 10 -7 10 -15z m-330 -15 c0 -5 -4
-10 -10 -10 -5 0 -10 5 -10 10 0 6 5 10 10 10 6 0 10 -4 10 -10z m70 -5 c0 -8
-4 -15 -10 -15 -5 0 -10 7 -10 15 0 8 5 15 10 15 6 0 10 -7 10 -15z m-3810 1
c0 -3 -4 -8 -10 -11 -5 -3 -10 -1 -10 4 0 6 5 11 10 11 6 0 10 -2 10 -4z m60
-11 c0 -8 -6 -15 -14 -15 -17 0 -28 14 -19 24 12 12 33 6 33 -9z m3777 -7 c-3
-8 -6 -5 -6 6 -1 11 2 17 5 13 3 -3 4 -12 1 -19z m-267 -2 c0 -8 -4 -18 -10
-21 -5 -3 -10 3 -10 14 0 12 5 21 10 21 6 0 10 -6 10 -14z m346 -2 c-3 -9 -6
-18 -6 -20 0 -3 -4 -3 -10 1 -11 7 -2 35 12 35 6 0 7 -7 4 -16z m-210 -31 c8
-3 14 -9 14 -14 0 -4 -6 -6 -14 -3 -8 3 -30 7 -48 8 -56 5 -58 6 -58 17 0 11
72 5 106 -8z m307 -5 c-4 -18 -23 -30 -86 -55 -45 -17 -83 -30 -86 -28 -15 16
100 85 142 85 9 0 17 5 17 10 0 6 4 10 9 10 4 0 6 -10 4 -22z m-4885 -17 c9
-5 79 -17 156 -27 142 -18 162 -27 139 -63 -11 -18 -44 -21 -55 -6 -5 6 -12 4
-18 -5 -5 -8 -10 -10 -10 -4 0 7 -13 10 -30 8 -16 -2 -30 0 -30 5 0 5 -9 11
-20 14 -11 3 -20 0 -20 -6 0 -7 -5 -6 -11 3 -9 12 -12 13 -16 1 -5 -11 -7 -11
-14 0 -8 12 -11 11 -19 -1 -7 -11 -10 -11 -10 -2 0 7 -4 11 -8 8 -4 -2 -33 1
-63 9 -29 7 -49 13 -42 14 7 1 10 8 7 16 -4 9 3 16 20 21 14 3 23 10 20 15 -7
12 2 11 24 0z m4413 -34 c-8 -8 -11 -7 -11 4 0 9 3 19 7 23 4 4 9 2 11 -4 3
-7 -1 -17 -7 -23z m536 -28 c-4 -38 -1 -51 11 -58 13 -8 14 -12 3 -25 -11 -13
-11 -55 -1 -236 11 -199 10 -244 -5 -229 -11 11 -40 583 -30 599 14 23 26 -5
22 -51z m-327 1 c0 -5 -4 -10 -10 -10 -5 0 -10 5 -10 10 0 6 5 10 10 10 6 0
10 -4 10 -10z m352 -12 c-7 -7 -12 -8 -12 -2 0 14 12 26 19 19 2 -3 -1 -11 -7
-17z m38 7 c0 -8 -4 -15 -10 -15 -5 0 -7 7 -4 15 4 8 8 15 10 15 2 0 4 -7 4
-15z m1950 -60 c0 -16 -6 -25 -15 -25 -15 0 -21 31 -8 43 13 14 23 6 23 -18z
m-1964 -32 c-11 -11 -19 6 -11 24 8 17 8 17 12 0 3 -10 2 -21 -1 -24z m-5180
-33 c8 0 14 -7 14 -15 0 -17 -36 -20 -59 -6 -17 11 -4 34 16 27 8 -3 21 -6 29
-6z m5174 -14 c0 -8 -4 -18 -10 -21 -5 -3 -10 3 -10 14 0 12 5 21 10 21 6 0
10 -6 10 -14z m-5094 -6 c8 0 14 -5 14 -11 0 -15 -53 -6 -58 10 -3 10 0 12 12
8 10 -4 24 -7 32 -7z m74 -26 c0 -9 -7 -14 -17 -12 -25 5 -28 28 -4 28 12 0
21 -6 21 -16z m5733 9 c-7 -2 -21 -2 -30 0 -10 3 -4 5 12 5 17 0 24 -2 18 -5z
m1217 -73 c0 -5 -5 -10 -11 -10 -5 0 -7 5 -4 10 3 6 8 10 11 10 2 0 4 -4 4
-10z m-6682 -114 c3 -3 -11 -6 -31 -6 -20 0 -37 5 -37 11 0 10 56 6 68 -5z
m5540 -3 c-10 -2 -28 -2 -40 0 -13 2 -5 4 17 4 22 1 32 -1 23 -4z m-778 -283
c0 -5 -9 -14 -20 -20 -11 -6 -20 -19 -20 -30 0 -26 -30 -100 -40 -100 -10 0
-25 -40 -22 -57 2 -7 -6 -17 -17 -23 -17 -9 -19 -7 -16 11 2 12 10 28 16 36 7
8 22 49 34 91 17 58 28 80 46 89 29 15 39 16 39 3z m4 -280 c3 -118 9 -271 12
-340 9 -173 -10 -148 -30 40 -16 148 -23 511 -10 531 16 26 22 -25 28 -231z
m866 80 c0 -5 -5 -10 -11 -10 -5 0 -7 5 -4 10 3 6 8 10 11 10 2 0 4 -4 4 -10z
m74 -36 c3 -8 2 -12 -4 -9 -6 3 -10 10 -10 16 0 14 7 11 14 -7z m-134 -16 c0
-16 -3 -19 -11 -11 -6 6 -8 16 -5 22 11 17 16 13 16 -11z m982 -68 c15 0 0
-91 -19 -112 -14 -16 -17 -16 -31 -1 -13 13 -14 20 -3 47 7 17 13 42 12 55 -1
17 3 22 15 17 9 -3 20 -6 26 -6z m-59 -134 c4 -9 -4 -16 -21 -19 -32 -6 -34
-5 -26 17 8 20 40 21 47 2z m337 -7 c0 -18 2 -20 16 -8 14 11 15 9 12 -16 -2
-22 -9 -28 -30 -31 -30 -3 -40 18 -27 54 11 28 29 29 29 1z m-1970 -188 c0 -5
-7 -12 -16 -15 -24 -9 -28 -7 -14 9 14 17 30 20 30 6z m-22 -49 c9 -7 8 -13
-7 -26 -25 -23 -45 -13 -31 15 12 21 18 23 38 11z m348 -120 c-11 -10 -15 4
-8 28 l7 25 3 -23 c2 -13 1 -26 -2 -30z m40 21 c-10 -10 -19 5 -10 18 6 11 8
11 12 0 2 -7 1 -15 -2 -18z m1238 -20 c-7 -40 -22 -69 -49 -97 -23 -23 -35
-20 -35 9 0 14 5 25 10 25 6 0 10 9 10 20 0 10 9 24 20 30 11 6 20 20 20 30 0
11 7 20 15 20 13 0 15 -8 9 -37z m-1358 -39 c28 -12 34 -18 21 -21 -21 -5
-114 24 -123 39 -10 15 52 5 102 -18z m144 6 c0 -5 -4 -10 -10 -10 -5 0 -10 5
-10 10 0 6 5 10 10 10 6 0 10 -4 10 -10z m-8060 -30 c0 -5 -11 -10 -25 -10
-14 0 -25 5 -25 10 0 6 11 10 25 10 14 0 25 -4 25 -10z m700 -90 c0 -5 -11
-10 -24 -10 -14 0 -28 5 -31 10 -4 6 7 10 24 10 17 0 31 -4 31 -10z m8465
-271 c11 -17 -1 -21 -15 -4 -8 9 -8 15 -2 15 6 0 14 -5 17 -11z m-2743 -483
c8 -13 -20 -46 -39 -46 -13 0 -19 51 -7 63 8 7 37 -3 46 -17z m-5664 3 c-2 -6
-8 -10 -13 -10 -5 0 -11 4 -13 10 -2 6 4 11 13 11 9 0 15 -5 13 -11z m-18 -64
c0 -8 -4 -15 -10 -15 -5 0 -10 7 -10 15 0 8 5 15 10 15 6 0 10 -7 10 -15z
m877 -37 c-3 -8 -6 -5 -6 6 -1 11 2 17 5 13 3 -3 4 -12 1 -19z m-20 -90 c-3
-8 -6 -5 -6 6 -1 11 2 17 5 13 3 -3 4 -12 1 -19z m253 0 c-1 -40 -50 -48 -67
-12 -11 23 -10 24 28 24 25 0 39 -5 39 -12z m40 -29 c-11 -26 -11 -33 1 -39
10 -6 13 -21 11 -48 -4 -36 -7 -41 -37 -46 -34 -7 -65 0 -65 15 0 5 4 9 10 9
5 0 14 18 20 39 5 21 17 42 25 45 8 3 15 14 15 24 0 18 20 45 28 37 3 -2 -1
-19 -8 -36z m-250 2 c0 -6 -4 -13 -10 -16 -5 -3 -10 1 -10 9 0 9 5 16 10 16 6
0 10 -4 10 -9z m525 -47 c24 9 6 -18 -20 -31 -22 -10 -27 -8 -36 9 -7 14 -8
18 0 14 5 -4 16 4 23 16 11 21 13 21 16 5 2 -11 10 -16 17 -13z m-420 -250
c-9 -14 -11 -25 -5 -29 16 -10 12 -19 -15 -32 -14 -6 -25 -7 -25 -2 0 5 5 9
10 9 14 0 12 16 -4 33 -12 11 -11 15 6 26 13 8 18 19 15 33 -5 19 -5 19 14 2
17 -16 18 -19 4 -40z m102 14 c-3 -8 -6 -5 -6 6 -1 11 2 17 5 13 3 -3 4 -12 1
-19z m428 2 c-3 -5 -1 -10 4 -10 6 0 11 -4 11 -10 0 -15 -27 -12 -33 4 -6 15
1 26 15 26 5 0 6 -4 3 -10z m-760 -56 c14 -9 43 -16 65 -16 29 1 40 -3 40 -14
0 -17 -37 -13 -92 8 -15 6 -34 8 -43 5 -19 -8 -31 13 -14 24 18 11 16 12 44
-7z m680 6 c-3 -5 -12 -10 -18 -10 -7 0 -6 4 3 10 19 12 23 12 15 0z m-369
-27 c-10 -10 -19 5 -10 18 6 11 8 11 12 0 2 -7 1 -15 -2 -18z m5625 -194 c-9
-22 -10 -22 -10 -3 -1 11 2 24 6 27 12 12 14 0 4 -24z m133 -175 c3 -9 6 -32
6 -52 -1 -44 -14 -27 -24 31 -7 37 6 52 18 21z"/>
<path d="M6025 9970 c-3 -5 1 -10 9 -10 8 0 18 5 21 10 3 6 -1 10 -9 10 -8 0
-18 -4 -21 -10z"/>
<path d="M6330 9891 c0 -6 4 -11 9 -11 5 0 12 -10 14 -22 4 -22 4 -22 6 -2 0
12 -6 27 -14 34 -10 9 -15 9 -15 1z"/>
<path d="M6271 9844 c0 -11 3 -14 6 -6 3 7 2 16 -1 19 -3 4 -6 -2 -5 -13z"/>
<path d="M5423 9834 c-18 -18 -16 -24 6 -24 25 0 35 15 18 28 -8 7 -16 6 -24
-4z"/>
<path d="M6231 9834 c0 -11 3 -14 6 -6 3 7 2 16 -1 19 -3 4 -6 -2 -5 -13z"/>
<path d="M3700 9355 c0 -8 4 -15 9 -15 5 0 11 7 15 15 3 9 0 15 -9 15 -8 0
-15 -7 -15 -15z"/>
<path d="M3590 9255 c0 -16 16 -20 24 -6 3 5 -1 11 -9 15 -9 3 -15 0 -15 -9z"/>
<path d="M3450 9221 c0 -5 7 -11 15 -15 9 -3 15 0 15 9 0 8 -7 15 -15 15 -8 0
-15 -4 -15 -9z"/>
<path d="M3580 9206 c0 -9 5 -16 10 -16 6 0 10 4 10 9 0 6 -4 13 -10 16 -5 3
-10 -1 -10 -9z"/>
<path d="M3290 9196 c0 -9 5 -16 10 -16 6 0 10 4 10 9 0 6 -4 13 -10 16 -5 3
-10 -1 -10 -9z"/>
<path d="M3332 9197 c-10 -11 -9 -17 2 -26 18 -15 31 2 18 25 -7 13 -10 13
-20 1z"/>
<path d="M4205 9130 c-26 -5 -30 -9 -27 -33 3 -27 52 -91 52 -68 0 7 5 9 11 5
6 -3 8 -18 4 -33 l-6 -26 20 30 c13 19 17 33 11 39 -14 14 -13 53 1 58 24 8
-36 34 -66 28z"/>
<path d="M4570 9120 c0 -5 5 -10 10 -10 6 0 10 5 10 10 0 6 -4 10 -10 10 -5 0
-10 -4 -10 -10z"/>
<path d="M4995 9101 c-2 -5 4 -11 15 -14 11 -3 20 -2 20 3 0 12 -28 21 -35 11z"/>
<path d="M4240 8949 c0 -6 -10 -9 -22 -8 -13 2 -29 0 -37 -5 -8 -5 -17 -3 -22
5 -8 12 -11 12 -19 -1 -29 -44 -18 -88 19 -75 7 3 19 1 26 -5 9 -8 15 -8 20 0
7 12 26 14 24 3 -1 -5 -1 -16 0 -26 1 -21 26 -18 26 4 0 20 18 30 27 16 5 -8
8 -6 8 6 0 11 -9 21 -19 24 -17 4 -18 7 -5 31 7 14 11 29 8 34 -8 12 -34 10
-34 -3z m-27 -35 c8 -9 -11 -44 -23 -44 -6 0 -10 11 -10 25 0 23 18 34 33 19z"/>
<path d="M3890 8519 c0 -5 5 -7 10 -4 6 3 10 8 10 11 0 2 -4 4 -10 4 -5 0 -10
-5 -10 -11z"/>
<path d="M3982 8419 c-13 -5 -20 -13 -17 -19 3 -5 2 -10 -4 -10 -6 0 -13 -17
-17 -37 -4 -21 -11 -44 -16 -50 -6 -7 -7 -21 -3 -30 13 -29 12 -50 -1 -67 -10
-15 -15 -15 -33 -4 -15 9 -23 10 -32 1 -8 -8 -5 -17 15 -34 14 -12 26 -30 26
-38 0 -14 2 -14 9 -2 13 21 25 -48 16 -91 -7 -32 -6 -32 10 -13 16 19 16 19
11 -17 -2 -21 -2 -38 2 -38 8 0 32 72 32 97 0 10 10 54 21 98 12 44 23 107 25
140 2 33 6 66 9 73 2 6 1 12 -4 12 -4 0 -12 9 -17 19 -7 15 -14 17 -32 10z"/>
<path d="M3907 8363 c-4 -3 -7 -18 -6 -32 1 -26 1 -25 10 3 9 31 7 41 -4 29z"/>
<path d="M3832 8225 c0 -16 2 -22 5 -12 2 9 2 23 0 30 -3 6 -5 -1 -5 -18z"/>
<path d="M3807 7953 c-4 -3 -7 -11 -7 -17 0 -6 5 -5 12 2 6 6 9 14 7 17 -3 3
-9 2 -12 -2z"/>
<path d="M3341 9831 c-6 -10 -7 -21 -4 -25 10 -10 43 -7 43 4 0 6 -7 10 -16
10 -10 0 -14 6 -10 15 8 21 -1 19 -13 -4z"/>
<path d="M3328 9753 c7 -3 16 -2 19 1 4 3 -2 6 -13 5 -11 0 -14 -3 -6 -6z"/>
<path d="M3340 9696 c0 -2 7 -6 15 -10 8 -3 15 -1 15 4 0 6 -7 10 -15 10 -8 0
-15 -2 -15 -4z"/>
<path d="M3235 9660 c-3 -6 -3 -10 2 -10 4 0 19 -3 32 -7 17 -4 22 -2 19 7 -5
16 -45 23 -53 10z"/>
<path d="M3318 9643 c6 -2 18 -2 25 0 6 3 1 5 -13 5 -14 0 -19 -2 -12 -5z"/>
<path d="M3366 9616 c4 -18 1 -25 -15 -29 -14 -3 -19 -10 -15 -21 10 -25 23
-19 39 20 19 46 19 54 0 54 -11 0 -14 -7 -9 -24z"/>
<path d="M3230 9603 c0 -11 72 -33 83 -26 5 3 5 9 0 13 -12 11 -83 22 -83 13z"/>
<path d="M3361 9536 c-10 -12 -10 -19 2 -36 12 -18 15 -18 20 -5 4 8 3 24 -1
36 -7 18 -10 19 -21 5z"/>
<path d="M2720 9531 c0 -6 5 -13 10 -16 6 -3 10 1 10 9 0 9 -4 16 -10 16 -5 0
-10 -4 -10 -9z"/>
<path d="M7590 8990 c0 -5 5 -10 10 -10 6 0 10 5 10 10 0 6 -4 10 -10 10 -5 0
-10 -4 -10 -10z"/>
<path d="M8255 8820 c-3 -5 3 -10 15 -10 12 0 18 5 15 10 -3 6 -10 10 -15 10
-5 0 -12 -4 -15 -10z"/>
<path d="M7980 8740 c20 -13 43 -13 35 0 -3 6 -16 10 -28 10 -18 0 -19 -2 -7
-10z"/>
<path d="M8450 8700 c0 -5 5 -10 10 -10 6 0 10 5 10 10 0 6 -4 10 -10 10 -5 0
-10 -4 -10 -10z"/>
<path d="M8070 8688 c0 -54 48 -125 65 -98 4 6 11 8 16 5 5 -4 9 -1 9 5 0 6
10 8 26 4 19 -5 25 -4 20 5 -4 6 -16 11 -27 11 -13 0 -19 7 -19 21 0 16 -5 20
-27 17 -21 -2 -30 3 -38 20 -11 24 -25 30 -25 10z m70 -78 c0 -5 -4 -10 -10
-10 -5 0 -10 5 -10 10 0 6 5 10 10 10 6 0 10 -4 10 -10z"/>
<path d="M8155 8690 c3 -5 13 -10 21 -10 8 0 12 5 9 10 -3 6 -13 10 -21 10 -8
0 -12 -4 -9 -10z"/>
<path d="M8200 8690 c0 -5 5 -10 11 -10 5 0 7 5 4 10 -3 6 -8 10 -11 10 -2 0
-4 -4 -4 -10z"/>
<path d="M8300 8653 c1 -15 27 -43 40 -43 7 0 10 -8 7 -19 -3 -12 1 -22 9 -25
17 -6 19 -33 3 -38 -8 -3 -7 -14 5 -35 9 -18 16 -43 16 -56 0 -29 19 -87 29
-87 4 0 7 10 8 22 1 11 7 24 13 28 6 4 10 13 8 20 -2 8 3 15 10 16 6 1 17 2
23 3 6 0 8 8 5 17 -3 8 -2 12 4 9 6 -3 10 5 10 19 0 16 7 27 19 31 12 4 18 12
14 21 -3 7 0 14 6 14 6 0 11 9 11 21 0 11 -4 17 -10 14 -5 -3 -10 1 -10 10 0
15 -24 28 -75 41 -17 4 -24 1 -28 -13 -4 -14 -5 -13 -6 5 -1 18 -5 22 -20 17
-11 -3 -22 -1 -26 5 -7 11 -65 14 -65 3z m135 -83 c3 -5 2 -10 -4 -10 -5 0
-13 5 -16 10 -3 6 -2 10 4 10 5 0 13 -4 16 -10z"/>
<path d="M8255 8610 c-3 -5 -1 -10 4 -10 6 0 11 5 11 10 0 6 -2 10 -4 10 -3 0
-8 -4 -11 -10z"/>
<path d="M7810 8570 c0 -6 7 -10 15 -10 8 0 15 2 15 4 0 2 -7 6 -15 10 -8 3
-15 1 -15 -4z"/>
<path d="M8120 8551 c0 -12 5 -21 10 -21 6 0 10 6 10 14 0 8 -4 18 -10 21 -5
3 -10 -3 -10 -14z"/>
<path d="M7595 8530 c4 -6 19 -10 34 -10 15 0 32 -4 39 -10 7 -5 6 -3 -1 6
-15 16 -82 29 -72 14z"/>
<path d="M8545 8523 c-11 -25 -12 -30 -18 -108 l-5 -70 14 44 c14 46 29 151
21 151 -3 0 -8 -8 -12 -17z"/>
<path d="M7765 8500 c3 -5 8 -10 11 -10 2 0 4 5 4 10 0 6 -5 10 -11 10 -5 0
-7 -4 -4 -10z"/>
<path d="M8508 8460 c-7 -24 -3 -38 8 -28 3 4 4 17 2 30 l-3 23 -7 -25z"/>
<path d="M9195 8340 c-3 -6 1 -7 9 -4 18 7 21 14 7 14 -6 0 -13 -4 -16 -10z"/>
<path d="M9101 8172 c-17 -20 -21 -30 -13 -42 5 -9 6 -23 2 -31 -11 -18 -59
-17 -70 1 -7 12 -13 12 -35 0 -14 -7 -24 -19 -21 -26 4 -9 -3 -10 -26 -3 -18
5 -33 8 -34 6 -1 -1 -9 -22 -18 -46 -16 -48 -13 -66 11 -57 8 3 12 2 9 -3 -3
-4 7 -17 23 -28 23 -18 28 -28 28 -68 0 -50 -30 -96 -57 -87 -7 3 -10 -1 -8
-9 3 -8 15 -13 27 -12 13 2 21 -3 21 -12 0 -11 11 -15 42 -15 37 0 40 2 24 13
-17 13 -17 15 3 60 12 25 21 54 21 65 0 10 7 27 15 38 21 28 19 65 -5 71 -28
7 -25 27 8 58 17 17 35 25 50 22 17 -3 26 3 37 24 8 15 12 35 9 43 -4 9 0 18
10 22 9 3 13 10 10 15 -3 5 -9 7 -14 4 -5 -3 -12 1 -17 9 -7 12 -12 10 -32
-12z"/>
<path d="M7430 8155 c0 -16 16 -20 24 -6 3 5 -1 11 -9 15 -9 3 -15 0 -15 -9z"/>
<path d="M8301 8154 c0 -11 3 -14 6 -6 3 7 2 16 -1 19 -3 4 -6 -2 -5 -13z"/>
<path d="M8300 7896 c0 -8 5 -18 10 -21 6 -3 10 3 10 14 0 12 -4 21 -10 21 -5
0 -10 -6 -10 -14z"/>
<path d="M8780 7865 c-14 -17 -7 -31 20 -38 16 -4 20 0 20 18 0 27 -24 39 -40
20z"/>
<path d="M8665 7860 c3 -5 18 -10 32 -10 32 0 28 5 -10 14 -19 4 -26 3 -22 -4z"/>
<path d="M8603 7816 c-4 -7 -21 -20 -36 -28 l-29 -15 26 -16 c14 -10 26 -26
26 -36 0 -10 9 -26 20 -36 13 -11 20 -31 20 -53 0 -31 -2 -34 -24 -30 -19 4
-23 1 -19 -16 10 -46 12 -47 33 -36 18 10 20 8 20 -25 0 -28 4 -35 20 -35 12
0 25 10 32 25 12 26 34 33 40 14 6 -17 78 11 78 29 0 8 9 16 21 19 16 4 19 11
15 29 -3 12 -2 26 4 29 15 9 12 25 -5 25 -9 0 -12 6 -9 15 10 26 -44 18 -70
-10 -27 -29 -36 -31 -36 -10 0 8 -9 32 -20 52 -19 36 -67 62 -113 63 -10 0
-15 5 -12 11 4 6 22 9 40 7 41 -3 52 6 35 27 -15 19 -46 20 -57 1z m32 -236
c-3 -5 -11 -10 -16 -10 -6 0 -7 5 -4 10 3 6 11 10 16 10 6 0 7 -4 4 -10z"/>
<path d="M8130 7730 c0 -5 5 -10 11 -10 5 0 7 5 4 10 -3 6 -8 10 -11 10 -2 0
-4 -4 -4 -10z"/>
<path d="M8270 7715 c0 -8 4 -15 10 -15 5 0 7 7 4 15 -4 8 -8 15 -10 15 -2 0
-4 -7 -4 -15z"/>
<path d="M8340 7650 c0 -5 7 -10 16 -10 8 0 12 5 9 10 -3 6 -10 10 -16 10 -5
0 -9 -4 -9 -10z"/>
<path d="M8410 7555 c-6 -8 -9 -19 -5 -25 5 -7 12 -5 21 7 15 20 15 20 18 -52
1 -33 5 -40 22 -41 30 -2 77 -26 82 -42 3 -10 -9 -12 -52 -9 -30 2 -53 0 -50
-5 3 -4 14 -8 26 -8 13 0 18 -5 15 -14 -4 -10 -1 -13 9 -9 7 3 14 1 14 -5 0
-6 -6 -12 -12 -15 -7 -2 -9 -8 -5 -13 5 -5 14 -2 20 7 12 16 21 16 63 4 15 -5
23 0 32 19 6 14 8 25 4 24 -12 -3 -52 13 -52 22 0 4 14 7 30 6 32 -2 36 7 24
52 -7 26 -31 29 -37 5 -4 -14 -5 -12 -6 5 0 12 -6 22 -12 22 -6 0 -9 -6 -6
-14 14 -36 -72 -27 -89 8 -11 23 -10 23 35 18 35 -3 43 -2 35 7 -6 7 -24 13
-40 15 -26 3 -49 26 -25 26 6 0 11 5 11 10 0 15 -56 12 -70 -5z"/>
<path d="M8530 7561 c0 -6 7 -11 15 -11 9 0 20 -10 25 -22 8 -22 9 -22 9 5 1
15 -3 27 -8 27 -5 0 -16 3 -25 6 -9 3 -16 1 -16 -5z"/>
<path d="M8420 7469 c0 -5 5 -7 10 -4 6 3 10 8 10 11 0 2 -4 4 -10 4 -5 0 -10
-5 -10 -11z"/>
<path d="M8397 7464 c-3 -6 -4 -19 -2 -30 2 -10 4 -21 4 -23 1 -3 6 0 11 5 7
7 7 20 2 34 -5 13 -11 19 -15 14z"/>
<path d="M8522 7311 c2 -8 21 -20 41 -27 32 -11 39 -11 59 6 13 11 19 20 13
21 -37 7 -87 5 -92 -4 -3 -5 -9 -3 -15 4 -8 12 -9 12 -6 0z"/>
<path d="M8791 7281 c-12 -8 -9 -11 12 -17 32 -7 49 3 27 16 -19 12 -21 12
-39 1z"/>
<path d="M8440 7249 c0 -6 9 -9 19 -6 11 3 29 -2 40 -10 12 -8 21 -10 21 -4 0
13 -11 19 -48 26 -21 3 -32 1 -32 -6z"/>
<path d="M8580 7240 c0 -6 7 -10 15 -10 8 0 15 2 15 4 0 2 -7 6 -15 10 -8 3
-15 1 -15 -4z"/>
<path d="M9116 7241 c-4 -5 -2 -12 3 -15 5 -4 12 -2 15 3 4 5 2 12 -3 15 -5 4
-12 2 -15 -3z"/>
<path d="M8475 7050 c3 -5 8 -10 11 -10 2 0 4 5 4 10 0 6 -5 10 -11 10 -5 0
-7 -4 -4 -10z"/>
<path d="M3275 8720 c3 -5 8 -10 11 -10 2 0 4 5 4 10 0 6 -5 10 -11 10 -5 0
-7 -4 -4 -10z"/>
<path d="M3240 8679 c0 -5 5 -7 10 -4 6 3 10 8 10 11 0 2 -4 4 -10 4 -5 0 -10
-5 -10 -11z"/>
<path d="M3233 8515 c-3 -9 -3 -18 -1 -21 3 -3 8 4 11 16 6 23 -1 27 -10 5z"/>
<path d="M3207 8473 c-4 -3 -7 -13 -7 -22 1 -13 3 -13 11 2 11 19 8 33 -4 20z"/>
<path d="M3130 8415 c53 -17 68 -19 55 -6 -6 6 -30 13 -55 16 l-45 5 45 -15z"/>
<path d="M3214 8416 c-4 -11 -16 -28 -26 -38 -23 -23 -25 -63 -2 -54 12 4 14
1 9 -14 -4 -12 -2 -20 5 -20 8 0 9 15 4 46 -4 31 -3 45 4 41 15 -10 30 16 22
38 -8 20 -8 20 -16 1z"/>
<path d="M3101 8246 c32 -10 69 -37 69 -50 0 -3 -10 -14 -22 -26 -12 -11 -18
-20 -12 -20 5 0 3 -4 -4 -9 -11 -7 -11 -9 2 -14 11 -5 16 -1 16 13 0 12 5 17
14 14 18 -7 31 43 15 62 -6 8 -8 14 -3 14 5 1 -6 7 -25 15 -18 8 -45 15 -60
14 -23 -1 -22 -2 10 -13z"/>
<path d="M2956 8143 c-6 -14 -5 -15 5 -6 7 7 10 15 7 18 -3 3 -9 -2 -12 -12z"/>
<path d="M2892 8030 c0 -14 2 -19 5 -12 2 6 2 18 0 25 -3 6 -5 1 -5 -13z"/>
<path d="M3104 8025 c-3 -8 -4 -20 -1 -27 4 -8 6 -6 6 5 1 9 6 17 11 17 6 0
10 5 10 10 0 15 -20 12 -26 -5z"/>
<path d="M2928 7933 c7 -3 16 -2 19 1 4 3 -2 6 -13 5 -11 0 -14 -3 -6 -6z"/>
<path d="M3000 7626 c0 -8 -6 -16 -12 -19 -19 -6 -7 -15 27 -19 26 -3 30 0 33
25 3 23 0 27 -22 27 -16 0 -26 -6 -26 -14z"/>
<path d="M2930 7609 c0 -5 9 -9 20 -9 11 0 20 2 20 4 0 2 -9 6 -20 9 -11 3
-20 1 -20 -4z"/>
<path d="M2914 7521 c3 -4 23 -11 45 -15 22 -3 46 -9 55 -12 9 -3 16 -2 16 3
0 5 -20 14 -45 21 -53 14 -78 15 -71 3z"/>
</g>
</svg>
